<svg width="40" height="45" viewBox="0 0 40 45" fill="none" xmlns="http://www.w3.org/2000/svg">
<circle cx="20" cy="20" r="20" fill="#E3EFFF"/>
<g clip-path="url(#clip0)">
<path d="M12.1257 23.1405H9.78198V18.103H12.1257V23.1405ZM10.5632 22.3655H11.3445V18.878H10.5632V22.3655Z" fill="#0347FF"/>
<path d="M16.4226 23.1405H14.0789V14.228H16.4226V23.1405ZM14.8601 22.3655H15.6414V15.003H14.8601V22.3655Z" fill="#0347FF"/>
<path d="M20.7195 23.1404H18.3757V16.9404H20.7195V23.1404ZM19.157 22.3654H19.9382V17.7154H19.157V22.3654Z" fill="#0347FF"/>
<path d="M25.0164 23.1406H22.6726V15.3906H25.0164V23.1406ZM23.4539 22.3656H24.2351V16.1656H23.4539V22.3656Z" fill="#0347FF"/>
<path d="M29.3132 23.1405H26.9695V12.678H29.3132V23.1405ZM27.7507 22.3655H28.532V13.453H27.7507V22.3655Z" fill="#0347FF"/>
<path d="M20.7195 14.6155H18.3757V15.3905H20.7195V14.6155Z" fill="#0347FF"/>
<path d="M12.1257 15.7781H9.78198V16.5531H12.1257V15.7781Z" fill="#0347FF"/>
<path d="M29.7039 26.628H9.39136C9.08056 26.628 8.78249 26.5056 8.56272 26.2875C8.34295 26.0695 8.21948 25.7738 8.21948 25.4655V25.078C8.21948 24.7697 8.34295 24.474 8.56272 24.256C8.78249 24.038 9.08056 23.9155 9.39136 23.9155H29.7039C30.0147 23.9155 30.3127 24.038 30.5325 24.256C30.7523 24.474 30.8757 24.7697 30.8757 25.078V25.4655C30.8757 25.7738 30.7523 26.0695 30.5325 26.2875C30.3127 26.5056 30.0147 26.628 29.7039 26.628ZM9.39136 24.6905C9.28776 24.6905 9.1884 24.7314 9.11514 24.804C9.04189 24.8767 9.00073 24.9753 9.00073 25.078V25.4655C9.00073 25.5683 9.04189 25.6669 9.11514 25.7395C9.1884 25.8122 9.28776 25.853 9.39136 25.853H29.7039C29.8075 25.853 29.9068 25.8122 29.9801 25.7395C30.0533 25.6669 30.0945 25.5683 30.0945 25.4655V25.078C30.0945 24.9753 30.0533 24.8767 29.9801 24.804C29.9068 24.7314 29.8075 24.6905 29.7039 24.6905H9.39136Z" fill="#0347FF"/>
</g>
<defs>
<clipPath id="clip0">
<rect width="25" height="31" fill="white" transform="translate(7 14)"/>
</clipPath>
</defs>
</svg>
