<svg width="738" height="448" viewBox="0 0 738 448" fill="none" xmlns="http://www.w3.org/2000/svg">
<path d="M562.702 414.822C562.702 414.822 519.515 396.95 540.876 313.163C541.108 313.395 591.725 353.316 562.702 414.822Z" fill="#009DB0"/>
<path d="M560.148 411.805C560.148 411.805 538.787 409.948 517.426 358.422C517.193 358.422 548.306 369.563 560.148 411.805Z" fill="#018BA0"/>
<path d="M562.934 414.822C562.934 414.822 516.497 359.118 588.474 291.81C588.474 291.81 630.267 385.113 562.934 414.822Z" fill="#00C0CD"/>
<path d="M562.702 421.553H562.47C561.773 421.321 561.309 420.624 561.309 419.928L582.67 312.931C582.902 312.234 583.599 311.77 584.295 311.77C584.992 312.002 585.456 312.698 585.456 313.395L564.095 420.392C563.863 421.088 563.399 421.553 562.702 421.553Z" fill="#009DB0"/>
<path d="M577.329 348.209C576.633 348.209 576.168 347.745 575.936 347.281C575.704 346.585 576.168 345.888 576.865 345.656L592.421 340.782C593.118 340.55 593.814 341.014 594.047 341.711C594.279 342.407 593.814 343.103 593.118 343.335L577.561 348.209H577.329Z" fill="#009DB0"/>
<path d="M569.435 387.666C568.739 387.666 568.274 387.202 568.042 386.738C567.81 386.042 568.274 385.345 568.971 385.113L584.527 380.239C585.224 380.007 585.92 380.471 586.152 381.167C586.385 381.864 585.92 382.56 585.224 382.792L569.667 387.666C569.667 387.666 569.667 387.666 569.435 387.666Z" fill="#009DB0"/>
<path d="M572.686 370.955C572.221 370.955 571.989 370.723 571.757 370.491L557.129 354.244C556.665 353.78 556.665 352.851 557.129 352.387C557.594 351.923 558.522 351.923 558.987 352.387L573.614 368.634C574.079 369.098 574.079 370.027 573.614 370.491C573.382 370.955 573.15 370.955 572.686 370.955Z" fill="#009DB0"/>
<path d="M573.846 410.644H547.145C545.984 410.644 545.288 411.572 545.288 412.733L550.396 443.138C550.628 444.066 551.325 444.53 552.253 444.53H569.899C570.828 444.53 571.525 443.834 571.757 442.906L575.704 412.501C575.704 411.572 575.007 410.644 573.846 410.644Z" fill="#01052A"/>
<path d="M422.462 320.358H281.062V447.083H422.462V320.358Z" fill="#84B4FE"/>
<path d="M338.876 181.563L343.056 208.254L360.237 204.773L351.647 168.797L338.876 181.563Z" fill="#0CA8E5"/>
<path d="M338.876 182.723C350.545 182.723 360.005 173.267 360.005 161.602C360.005 149.938 350.545 140.481 338.876 140.481C327.207 140.481 317.747 149.938 317.747 161.602C317.747 173.267 327.207 182.723 338.876 182.723Z" fill="#0CA8E5"/>
<path d="M296.619 438.728C296.387 437.567 295.226 408.091 295.226 408.091L279.669 408.323L280.83 438.96L296.619 438.728Z" fill="#0CA8E5"/>
<path d="M254.129 445.923L297.78 445.459L297.548 431.997L267.364 432.229C260.166 432.461 254.129 438.496 254.129 445.923Z" fill="#1E1A1E"/>
<path d="M330.053 325.928H283.617L299.87 309.217L301.03 413.197L273.633 414.125L267.364 310.377C266.899 301.558 273.401 294.13 282.224 293.666C282.456 293.666 282.92 293.666 283.152 293.666H283.617H330.053V325.928Z" fill="#052E47"/>
<path d="M291.046 265.582C289.189 265.582 287.099 265.118 285.242 263.958C280.134 260.708 278.509 253.977 281.527 248.871L314.265 195.257C317.515 190.15 324.249 188.526 329.357 191.543C334.465 194.792 336.09 201.523 333.072 206.629L300.334 260.244C298.476 263.726 294.761 265.582 291.046 265.582Z" fill="#EFBD65"/>
<path d="M325.177 189.918H375.097C382.294 189.918 387.867 195.953 387.635 203.148L378.115 287.4L318.676 286.935L312.871 203.38C312.175 195.953 317.979 189.918 325.177 189.918Z" fill="#F7C869"/>
<path d="M161.952 447.083H161.72C160.559 446.851 159.862 445.923 160.094 444.762L186.563 289.953C186.795 288.792 187.724 288.096 188.885 288.328C190.046 288.56 190.743 289.489 190.51 290.649L164.041 445.459C163.809 446.387 162.881 447.083 161.952 447.083Z" fill="#214A81"/>
<path d="M228.124 446.387C227.195 446.387 226.267 445.691 226.034 444.763L199.565 290.649C199.333 289.489 200.03 288.56 201.191 288.328C202.352 288.096 203.28 288.792 203.513 289.953L229.982 444.066C230.214 445.227 229.517 446.155 228.356 446.387H228.124Z" fill="#1A3E66"/>
<path d="M401.334 445.923H401.102C399.941 445.691 399.244 444.762 399.476 443.602L425.945 289.953C426.178 288.792 427.106 288.096 428.267 288.328C429.428 288.56 430.125 289.489 429.893 290.649L403.424 444.298C403.191 445.227 402.263 445.923 401.334 445.923Z" fill="#214A81"/>
<path d="M467.506 445.923C466.578 445.923 465.649 445.227 465.417 444.298L438.948 290.649C438.716 289.489 439.412 288.56 440.573 288.328C441.734 288.096 442.663 288.792 442.895 289.953L469.364 443.602C469.596 444.762 468.9 445.691 467.739 445.923C467.739 445.923 467.739 445.923 467.506 445.923Z" fill="#1A3E66"/>
<path d="M344.217 438.728C343.984 437.567 344.681 408.091 344.681 408.091L329.125 408.323L328.428 438.96L344.217 438.728Z" fill="#0CA8E5"/>
<path d="M301.727 445.923L345.377 445.459L345.145 431.997L314.961 432.229C307.764 432.461 301.727 438.496 301.727 445.923Z" fill="#1E1A1E"/>
<path d="M308.924 266.975C311.478 261.869 317.515 259.78 322.623 262.333C324.248 263.261 325.642 264.422 326.57 265.815L341.894 266.511L347.235 276.723L325.874 278.58C322.855 281.829 317.979 282.99 313.8 280.901C308.46 278.116 306.37 272.081 308.924 266.975Z" fill="#0CA8E5"/>
<path d="M366.971 323.143L320.766 333.123L320.302 307.36C320.302 300.397 325.874 294.595 333.072 294.595H380.902V309.449C380.669 316.876 375.561 321.518 366.971 323.143Z" fill="#03345F"/>
<path d="M352.343 308.753L349.557 417.839H322.856L320.302 317.34L352.343 308.753Z" fill="#03345F"/>
<path d="M362.095 280.901H305.21V274.402H362.095C363.952 274.402 365.345 275.795 365.345 277.651C365.345 279.508 363.72 280.901 362.095 280.901Z" fill="#CFD1D3"/>
<path d="M312.639 280.901H237.18C232.768 280.901 229.053 278.116 227.892 273.938L213.265 221.252C211.871 216.61 215.586 211.968 220.23 211.968H289.653C292.439 211.968 294.993 213.825 295.922 216.61L312.639 280.901Z" fill="#E2E4E9"/>
<path d="M261.094 257.691C265.07 257.691 268.292 254.47 268.292 250.496C268.292 246.522 265.07 243.301 261.094 243.301C257.119 243.301 253.897 246.522 253.897 250.496C253.897 254.47 257.119 257.691 261.094 257.691Z" fill="white"/>
<path d="M339.109 281.597L338.876 259.548L373.24 259.084L365.81 203.148C365.113 197.113 369.293 191.543 375.329 190.847C381.366 190.15 386.706 194.56 387.403 200.595L396.226 268.832C396.69 271.849 395.529 275.099 393.672 277.42C391.582 279.74 388.564 281.133 385.546 281.133L339.109 281.597Z" fill="#FFD474"/>
<path d="M491.654 280.901H157.076V296.684H491.654V280.901Z" fill="#214A81"/>
<path d="M317.747 151.39C317.747 151.39 316.587 161.602 346.77 152.55L350.718 166.476C350.718 166.476 356.29 187.597 356.29 184.812C356.29 182.259 376.258 142.802 343.984 136.304C313.568 130.269 317.747 151.39 317.747 151.39Z" fill="#072042"/>
<path d="M351.634 168.975C354.671 168.48 356.732 165.617 356.237 162.58C355.742 159.544 352.878 157.484 349.84 157.979C346.803 158.474 344.742 161.337 345.237 164.373C345.732 167.409 348.596 169.47 351.634 168.975Z" fill="#0CA8E5"/>
<path d="M642.808 445.381L120.192 448C119.477 448 119 447.524 119 446.81C119 446.095 119.477 445.619 120.192 445.619L642.808 443C643.523 443 644 443.476 644 444.19C643.762 444.905 643.285 445.381 642.808 445.381Z" fill="#39CDCC"/>
<path d="M437.554 250.496H412.246C411.782 250.496 411.55 250.96 411.55 251.192V270.457C411.55 276.027 415.961 280.437 421.533 280.437H428.267C433.839 280.437 438.251 276.027 438.251 270.457V251.424C438.483 250.96 438.019 250.496 437.554 250.496Z" fill="white"/>
<path d="M434.536 277.42C440.341 274.17 450.092 264.654 448.467 257.923C448.003 256.067 446.842 254.906 445.216 253.978C441.501 252.121 435.929 254.442 435.465 254.674L437.322 258.387C438.715 257.923 441.734 256.995 443.359 257.691C443.591 257.923 444.056 258.155 444.288 258.852C445.216 262.797 437.554 270.921 432.446 273.938L434.536 277.42Z" fill="white"/>
<path opacity="0.1" d="M655.638 55H408V213.273H655.638V55Z" fill="white"/>
<path opacity="0.2" d="M625.928 91.2192H623.937V186.646H625.928V91.2192Z" fill="white"/>
<path opacity="0.2" d="M597.048 91.2192H595.057V186.646H597.048V91.2192Z" fill="white"/>
<path opacity="0.2" d="M568.168 91.2192H566.177V186.646H568.168V91.2192Z" fill="white"/>
<path opacity="0.2" d="M539.288 91.2192H537.296V186.646H539.288V91.2192Z" fill="white"/>
<path opacity="0.2" d="M510.408 91.2192H508.416V186.646H510.408V91.2192Z" fill="white"/>
<path opacity="0.2" d="M481.528 91.2192H479.536V186.646H481.528V91.2192Z" fill="white"/>
<path d="M646.343 162.665C643.024 147.285 639.206 132.069 634.393 117.019C633.231 113.546 632.235 110.073 631.073 106.6C630.244 104.285 628.916 101.969 626.426 100.812C621.115 98.4963 616.301 103.292 614.476 107.758C613.148 110.9 612.318 114.373 611.322 117.515C610.492 120.162 609.662 126.115 606.675 127.439C602.691 129.092 600.368 123.635 599.704 120.989C598.708 117.846 597.878 114.704 596.55 111.727C594.558 107.262 591.737 99.9847 585.762 100.646C580.616 101.308 576.633 106.104 574.475 110.569C572.317 115.531 571.654 120.989 570.99 126.446C570.16 134.385 569.33 142.489 568.666 150.427C567.836 158.2 567.504 166.469 564.849 173.912C562.857 179.535 558.209 185.985 551.404 184.331C544.267 182.677 540.616 174.739 537.794 168.785C534.641 162.169 531.985 155.058 529.993 147.946C526.01 134.385 523.52 120.327 520.533 106.435C518.873 98.6616 517.213 90.5578 514.723 82.9501C512.732 77.1616 508.582 70.877 501.611 71.5386C494.474 72.3655 492.15 79.8078 491.321 85.7616C490.159 94.6924 488.997 103.623 488.001 112.389C487.669 115.531 492.482 115.531 492.814 112.389C493.81 104.781 494.806 97.1732 495.636 89.5655C496.134 86.0924 496.134 82.2886 497.96 79.1463C500.283 75.177 504.599 75.5078 507.254 78.8155C509.246 81.2963 510.076 84.7693 510.906 87.7463C511.902 91.054 512.732 94.3616 513.396 97.8347C514.889 104.45 516.217 110.9 517.545 117.515C520.201 130.746 523.022 144.142 527.504 156.877C529.661 162.996 532.151 168.95 535.139 174.573C537.794 179.7 541.28 184.827 546.591 187.473C557.38 192.765 566.01 184 569.33 174.408C571.488 167.958 572.152 160.846 572.815 154.065C573.645 146.458 574.309 139.015 575.139 131.408C575.803 125.454 575.969 119.335 577.961 113.712C578.791 111.231 580.118 108.915 582.11 107.096C582.94 106.269 584.6 104.946 585.762 104.946C587.919 104.946 589.081 107.923 589.911 109.412C591.405 112.223 592.733 115.365 593.729 118.508C594.558 121.319 595.222 124.296 596.882 126.777C599.372 130.746 604.517 133.558 608.998 131.077C614.31 128.1 615.472 119.831 617.131 114.539C618.127 111.562 619.123 105.112 622.941 104.45C626.592 103.954 627.754 111.892 628.584 114.373C633.729 130.415 638.044 146.623 641.53 163.162C642.194 166.965 647.007 165.808 646.343 162.665Z" fill="white"/>
<path d="M643.356 65.9153V77.4922L637.381 83.2807H625.928V65.9153H643.356Z" fill="#E9B200"/>
<path d="M643.356 77.4922L637.381 83.2806V77.4922H643.356Z" fill="#E9B200"/>
<path d="M618.293 65.9153H600.7V83.4461H618.293V65.9153Z" fill="#39CDCC"/>
<path opacity="0.2" d="M646.343 197.562H456.631V199.546H646.343V197.562Z" fill="white"/>
<path opacity="0.2" d="M456.631 79.8076H421.112V83.2807H456.631V79.8076Z" fill="white"/>
<path opacity="0.2" d="M456.631 89.5652H421.112V93.0383H456.631V89.5652Z" fill="white"/>
<path opacity="0.2" d="M456.631 99.323H421.112V102.796H456.631V99.323Z" fill="white"/>
<path opacity="0.2" d="M456.631 109.081H421.112V112.554H456.631V109.081Z" fill="white"/>
<path d="M427.087 72.8615C428.829 72.8615 430.241 71.4547 430.241 69.7192C430.241 67.9838 428.829 66.5769 427.087 66.5769C425.345 66.5769 423.934 67.9838 423.934 69.7192C423.934 71.4547 425.345 72.8615 427.087 72.8615Z" fill="#5202B5"/>
<path d="M438.872 72.8615C440.613 72.8615 442.025 71.4547 442.025 69.7192C442.025 67.9838 440.613 66.5769 438.872 66.5769C437.13 66.5769 435.718 67.9838 435.718 69.7192C435.718 71.4547 437.13 72.8615 438.872 72.8615Z" fill="#5202B5"/>
<path d="M450.656 72.8615C452.398 72.8615 453.81 71.4547 453.81 69.7192C453.81 67.9838 452.398 66.5769 450.656 66.5769C448.914 66.5769 447.502 67.9838 447.502 69.7192C447.502 71.4547 448.914 72.8615 450.656 72.8615Z" fill="#5202B5"/>
<path opacity="0.2" d="M733.405 30.1266C735.937 26.8354 737.709 22.7848 737.709 18.481C737.709 8.35443 729.354 0 719.228 0H679.481C669.354 0 661 8.35443 661 18.481C661 28.6076 669.354 36.962 679.481 36.962H719.228C722.266 36.962 725.051 36.2025 727.329 34.9367L736.443 40L733.405 30.1266Z" fill="#4C4C4C"/>
<path d="M713.152 22.5317C715.389 22.5317 717.203 20.7182 717.203 18.481C717.203 16.2439 715.389 14.4304 713.152 14.4304C710.915 14.4304 709.102 16.2439 709.102 18.481C709.102 20.7182 710.915 22.5317 713.152 22.5317Z" fill="white"/>
<path d="M699.481 22.5317C701.718 22.5317 703.532 20.7182 703.532 18.481C703.532 16.2439 701.718 14.4304 699.481 14.4304C697.244 14.4304 695.431 16.2439 695.431 18.481C695.431 20.7182 697.244 22.5317 699.481 22.5317Z" fill="white"/>
<path d="M685.557 22.5317C687.794 22.5317 689.608 20.7182 689.608 18.481C689.608 16.2439 687.794 14.4304 685.557 14.4304C683.32 14.4304 681.506 16.2439 681.506 18.481C681.506 20.7182 683.32 22.5317 685.557 22.5317Z" fill="white"/>
<g opacity="0.6">
<path opacity="0.2" d="M255.677 121.159C258.044 118.083 259.7 114.297 259.7 110.274C259.7 100.809 251.891 93 242.426 93H205.274C195.809 93 188 100.809 188 110.274C188 119.74 195.809 127.549 205.274 127.549H242.426C245.265 127.549 247.868 126.839 249.998 125.655L258.517 130.388L255.677 121.159Z" fill="white"/>
<path d="M236.747 114.06C238.838 114.06 240.533 112.365 240.533 110.274C240.533 108.183 238.838 106.488 236.747 106.488C234.656 106.488 232.96 108.183 232.96 110.274C232.96 112.365 234.656 114.06 236.747 114.06Z" fill="white"/>
<path d="M223.969 114.06C226.06 114.06 227.755 112.365 227.755 110.274C227.755 108.183 226.06 106.488 223.969 106.488C221.877 106.488 220.182 108.183 220.182 110.274C220.182 112.365 221.877 114.06 223.969 114.06Z" fill="white"/>
<path d="M210.954 114.06C213.045 114.06 214.74 112.365 214.74 110.274C214.74 108.183 213.045 106.488 210.954 106.488C208.863 106.488 207.167 108.183 207.167 110.274C207.167 112.365 208.863 114.06 210.954 114.06Z" fill="white"/>
</g>
<path d="M240 41C240 41 245.792 34.3477 249.267 31.1661C255.638 25.6707 263.168 15.8369 286.625 23.0676C288.363 23.6461 290.1 24.5138 292.128 25.0923C294.155 25.96 300.526 25.96 307.187 20.7538C317.612 12.3661 321.667 6.00298 336.147 6.00298C352.943 5.71375 355.55 26.5384 368.582 32.0338C376.98 35.5046 398.7 38.6861 403.333 40.4215L240 41Z" fill="#EAEBFB" style="mix-blend-mode:multiply"/>
<path d="M0 143C0 143 5.792 136.348 9.26717 133.166C15.6383 127.671 23.1679 117.837 46.6253 125.068C48.3629 125.646 50.1005 126.514 52.1276 127.092C54.1548 127.96 60.526 127.96 67.1868 122.754C77.6123 114.366 81.6667 108.003 96.1466 108.003C112.943 107.714 115.55 128.538 128.582 134.034C136.98 137.505 158.7 140.686 163.333 142.422L0 143Z" fill="#EAEBFB" style="mix-blend-mode:multiply"/>
<path d="M699.359 91.3333L698.5 89L697.641 91.3333C696.953 93.3333 695.234 95 693 96C695.234 97 696.953 98.6667 697.641 100.667L698.5 103L699.359 100.667C700.047 98.6667 701.766 97 704 96C701.766 95 700.047 93.3333 699.359 91.3333Z" fill="white"/>
<path d="M170.111 173.667L169.222 171L168.333 173.667C167.444 176.037 165.667 177.815 163 179C165.667 180.185 167.444 182.259 168.333 184.333L169.222 187L170.111 184.333C171 181.963 172.778 180.185 175.444 179C172.778 177.815 170.704 175.741 170.111 173.667Z" fill="#E9B200"/>
</svg>
