<svg width="167" height="36" viewBox="0 0 167 36" fill="none" xmlns="http://www.w3.org/2000/svg">
<path fill-rule="evenodd" clip-rule="evenodd" d="M0 1.11381C0 0.498671 0.497357 0 1.11088 0H4.44351C5.05703 0 5.55439 0.498671 5.55439 1.11381V21.1624C5.55439 21.7776 6.05175 22.2762 6.66527 22.2762H21.1067C21.7202 22.2762 22.2176 21.7776 22.2176 21.1624V17.821C22.2176 17.2059 21.7202 16.7072 21.1067 16.7072H14.4414C12.6008 16.7072 11.1088 15.2112 11.1088 13.3657V3.34144C11.1088 1.49601 12.6008 0 14.4414 0H24.4393C26.2799 0 27.7719 1.49601 27.7719 3.34144V24.5039C27.7719 26.3493 26.2799 27.8453 24.4393 27.8453H3.33263C1.49207 27.8453 0 26.3493 0 24.5039V1.11381ZM22.2176 6.68287C22.2176 6.06773 21.7202 5.56906 21.1067 5.56906H16.6632V10.0243C16.6632 10.6395 17.1605 11.1381 17.774 11.1381H22.2176V6.68287Z" fill="white"/>
<path d="M37.03 0V27.8055H41.8306V0H37.03Z" fill="white"/>
<path d="M63.8712 19.7304C64.625 11.6552 60.5385 7.59779 53.9923 7.59779C47.6444 7.59779 43.5977 11.8939 43.5977 17.8608C43.5977 24.1459 47.6048 28.3227 54.3494 28.3227C57.3249 28.3227 60.6972 27.2884 62.7603 25.1403L59.6657 22.0773C58.5548 23.2309 56.2141 23.9072 54.4287 23.9072C51.0167 23.9072 48.914 22.1569 48.5966 19.7304H63.8712ZM48.676 15.7127C49.3901 13.1669 51.5325 11.8939 54.151 11.8939C56.9282 11.8939 58.9119 13.1669 59.2293 15.7127H48.676Z" fill="white"/>
<path d="M85.2559 27.8055V17.5028C85.2559 11.337 81.5662 7.87624 76.964 7.87624C74.5042 7.87624 72.5205 8.87072 70.5368 10.8199L70.2194 8.1547H65.8949V27.8055H70.6954V17.7812C70.6954 14.7978 72.7188 12.2917 75.6944 12.2917C78.789 12.2917 80.4156 14.5591 80.4156 17.5425V27.8055H85.2559Z" fill="white"/>
<path d="M97.3106 12.2519C100.366 12.2519 102.984 14.5591 102.984 17.9801C102.984 21.5204 100.366 23.7481 97.3106 23.7481C94.216 23.7481 91.7562 21.4011 91.7562 17.9801C91.7562 14.4398 94.216 12.2519 97.3106 12.2519ZM103.301 0V10.8597C102.151 8.83094 98.9373 7.71713 96.8742 7.71713C91.1611 7.71713 86.916 11.2177 86.916 17.9801C86.916 24.4243 91.2405 28.2431 96.9932 28.2431C99.3737 28.2431 101.794 27.4475 103.301 25.1006L103.619 27.8055H108.142V0H103.301Z" fill="white"/>
<path d="M126.24 10.2232C123.978 8.23425 121.677 7.63757 118.622 7.63757C115.052 7.63757 110.37 9.22873 110.37 13.7635C110.37 18.2188 114.774 19.5713 118.463 19.8497C121.241 20.0088 122.352 20.5657 122.352 21.9182C122.352 23.3503 120.646 24.305 118.821 24.2652C116.638 24.2254 113.465 23.0718 112.076 21.5204L109.695 24.9812C112.552 27.9646 115.647 28.4818 118.741 28.4818C124.335 28.4818 127.152 25.4983 127.152 22.0376C127.152 16.8265 122.471 15.9912 118.781 15.7525C116.281 15.5934 115.131 14.8773 115.131 13.6044C115.131 12.3713 116.4 11.6552 118.702 11.6552C120.566 11.6552 122.153 12.0928 123.542 13.4055L126.24 10.2232Z" fill="white"/>
<path d="M138.111 23.5889C134.818 23.5889 132.556 21.0829 132.556 18.0199C132.556 14.9569 134.619 12.4508 138.111 12.4508C141.602 12.4508 143.665 14.9569 143.665 18.0199C143.665 21.0829 141.404 23.5889 138.111 23.5889ZM148.942 36V8.19448H144.419L144.101 10.8994C142.594 8.7116 139.975 7.75691 137.754 7.75691C131.723 7.75691 127.716 12.2519 127.716 18.0199C127.716 23.7481 131.326 28.2829 137.595 28.2829C139.658 28.2829 142.713 27.6464 144.101 25.4983V36H148.942Z" fill="white"/>
<path d="M151.606 8.19448V27.8055H156.447V17.463C156.447 13.8431 158.787 12.4906 161.327 12.4906C162.913 12.4906 163.826 12.9282 164.818 13.7635L167 9.54696C165.929 8.47293 163.985 7.67735 161.961 7.67735C159.978 7.67735 157.954 8.03536 156.447 10.4619L156.09 8.19448H151.606Z" fill="white"/>
</svg>
