<svg width="20" height="12" viewBox="0 0 20 12" fill="none" xmlns="http://www.w3.org/2000/svg">
<path d="M1.19177 11.3553C1.42299 11.1472 1.65188 10.9412 1.88309 10.7331C2.43195 10.2391 2.98314 9.74307 3.53199 9.2491C4.19995 8.64793 4.86792 8.04676 5.53355 7.44769C6.10809 6.9306 6.68264 6.41351 7.25718 5.89643C7.53745 5.64419 7.82706 5.39825 8.09798 5.13971C8.10265 5.1355 8.10499 5.1334 8.10966 5.1292C7.78034 5.1292 7.4487 5.1292 7.11938 5.1292C7.54913 5.51596 7.97887 5.90273 8.40861 6.2895C9.09292 6.90538 9.77724 7.52126 10.4639 8.13925C10.6204 8.28008 10.7768 8.42091 10.9333 8.56175C11.2019 8.80348 11.655 8.80348 11.9236 8.56175C12.1852 8.32633 12.4491 8.0888 12.7107 7.85338C13.3343 7.29215 13.9602 6.72881 14.5838 6.16758C15.3452 5.48233 16.1042 4.79919 16.8656 4.11394C17.5172 3.52748 18.1712 2.93892 18.8228 2.35247C19.1428 2.0645 19.4674 1.78283 19.7804 1.49065C19.785 1.48645 19.7897 1.48225 19.7944 1.47804C20.0536 1.24472 20.0723 0.815914 19.7944 0.586798C19.5141 0.355579 19.0797 0.336661 18.8041 0.586798C18.5425 0.82222 18.2786 1.05975 18.017 1.29517C17.3934 1.8564 16.7675 2.41973 16.1439 2.98096C15.3825 3.66621 14.6235 4.34936 13.8621 5.03461C13.2105 5.62106 12.5565 6.20962 11.9049 6.79608C11.5849 7.08405 11.2556 7.36361 10.9473 7.65789C10.9427 7.6621 10.938 7.6663 10.9333 7.67051C11.2626 7.67051 11.5943 7.67051 11.9236 7.67051C11.4939 7.28374 11.0641 6.89697 10.6344 6.51021C9.95006 5.89432 9.26575 5.27844 8.5791 4.66046C8.42262 4.51962 8.26614 4.37879 8.10966 4.23795C7.84107 3.99623 7.38797 3.99623 7.11938 4.23795C6.88817 4.44605 6.65928 4.65205 6.42806 4.86014C5.87921 5.35411 5.32802 5.85018 4.77917 6.34415C4.1112 6.94532 3.44324 7.54649 2.77761 8.14555C2.20306 8.66264 1.62852 9.17973 1.05398 9.69682C0.77371 9.94906 0.486438 10.1971 0.213179 10.4535C0.208508 10.4577 0.206173 10.4598 0.201502 10.464C-0.0577438 10.6974 -0.0764282 11.1262 0.201502 11.3553C0.479431 11.5865 0.913843 11.6054 1.19177 11.3553Z" fill="#545F7D"/>
<path d="M14.147 1.66119C14.7262 1.66119 15.3054 1.66119 15.8847 1.66119C16.8095 1.66119 17.7321 1.66119 18.657 1.66119C18.8718 1.66119 19.0844 1.66119 19.2992 1.66119C19.0657 1.45099 18.8321 1.24079 18.5986 1.03059C18.5986 1.55188 18.5986 2.07318 18.5986 2.59447C18.5986 3.42686 18.5986 4.25715 18.5986 5.08953C18.5986 5.28292 18.5986 5.4742 18.5986 5.66758C18.5986 5.99759 18.9209 6.31289 19.2992 6.29818C19.6799 6.28346 19.9999 6.02072 19.9999 5.66758C19.9999 5.14629 19.9999 4.62499 19.9999 4.1037C19.9999 3.27131 19.9999 2.44103 19.9999 1.60864C19.9999 1.41526 19.9999 1.22397 19.9999 1.03059C19.9999 0.690069 19.6799 0.399994 19.2992 0.399994C18.72 0.399994 18.1408 0.399994 17.5616 0.399994C16.6367 0.399994 15.7142 0.399994 14.7893 0.399994C14.5744 0.399994 14.3619 0.399994 14.147 0.399994C13.7803 0.399994 13.43 0.690069 13.4464 1.03059C13.4627 1.37322 13.7546 1.66119 14.147 1.66119Z" fill="#545F7D"/>
</svg>
