<svg xmlns="http://www.w3.org/2000/svg" data-name="Layer 2" viewBox="0 0 32 40" x="0px" y="0px"><title>account, people, avatar, person-</title><path d="M16,2A14.00144,14.00144,0,0,0,6,25.8c.33.33.67.64,1.03.94A10.42745,10.42745,0,0,0,8.16,27.59a13.95715,13.95715,0,0,0,15.68006,0A10.42745,10.42745,0,0,0,24.97,26.74c.36005-.3.7-.61,1.03-.94A14.00144,14.00144,0,0,0,16,2Zm0,26a11.88182,11.88182,0,0,1-7.94-3.01,8.00456,8.00456,0,0,1,15.88,0A11.88182,11.88182,0,0,1,16,28ZM13,13a3,3,0,1,1,3,3A3.00879,3.00879,0,0,1,13,13ZM25.6,23.2a10.02116,10.02116,0,0,0-6.15-6.58,5,5,0,1,0-6.9,0A10.02116,10.02116,0,0,0,6.4,23.2a12,12,0,1,1,19.2,0Z"/><text x="0" y="47" fill="#000000" font-size="5px" font-weight="bold" font-family="'Helvetica Neue', Helvetica, Arial-Unicode, Arial, Sans-serif">Created by Braja Omar Justico</text><text x="0" y="52" fill="#000000" font-size="5px" font-weight="bold" font-family="'Helvetica Neue', Helvetica, Arial-Unicode, Arial, Sans-serif">from the Noun Project</text></svg>