<?xml version="1.0" encoding="UTF-8"?>
<!DOCTYPE svg PUBLIC "-//W3C//DTD SVG 1.1//EN" "http://www.w3.org/Graphics/SVG/1.1/DTD/svg11.dtd">
<!-- Creator: CorelDRAW X7 -->
<svg xmlns="http://www.w3.org/2000/svg" xml:space="preserve" width="7.85433in" height="3.85276in" version="1.1" style="shape-rendering:geometricPrecision; text-rendering:geometricPrecision; image-rendering:optimizeQuality; fill-rule:evenodd; clip-rule:evenodd"
viewBox="0 0 7854 3853"
 xmlns:xlink="http://www.w3.org/1999/xlink">
 <defs>
  <style type="text/css">
   <![CDATA[
    .fil0 {fill:#545F7D}
   ]]>
  </style>
 </defs>
 <g id="Layer_x0020_1">
  <metadata id="CorelCorpID_0Corel-Layer"/>
  <g id="_1795922385200" i:extraneous="self">
   <g>
    <path class="fil0" d="M2968 1199c-66,8 -124,33 -165,82l-620 736 -281 -330c-83,-100 -240,-116 -348,-33 -99,99 -107,256 -24,355l463 554c49,58 115,91 190,91 74,0 140,-33 190,-91l810 -959c41,-50 66,-116 58,-182 -8,-66 -33,-124 -83,-165 -58,-42 -124,-58 -190,-58z"/>
    <path class="fil0" d="M5928 0l-4002 0c-1058,0 -1926,860 -1926,1926 0,1067 868,1927 1926,1927l4002 0c1058,0 1926,-860 1926,-1927 0,-1066 -868,-1926 -1926,-1926zm-4002 3340c-777,0 -1413,-636 -1413,-1414 0,-777 636,-1413 1413,-1413l2687 0c-380,355 -620,851 -620,1413 0,554 240,1059 620,1414l-2687 0zm4002 0c-777,0 -1414,-636 -1414,-1414 0,-777 637,-1413 1414,-1413 777,0 1405,636 1405,1413 0,778 -628,1414 -1405,1414z"/>
   </g>
  </g>
 </g>
</svg>
