<svg width="18" height="18" viewBox="0 0 18 18" fill="none" xmlns="http://www.w3.org/2000/svg">
<path d="M17.0019 4.00194C17.0012 3.99708 17.0004 3.99222 16.9997 3.98736C16.9963 3.9672 16.9923 3.94722 16.9868 3.92742C16.9857 3.92346 16.985 3.9195 16.9835 3.91572C16.9772 3.89358 16.9691 3.87144 16.9596 3.85002C16.9569 3.84516 16.9547 3.84066 16.9526 3.8358C16.9477 3.82518 16.9425 3.81456 16.9371 3.80412C16.9337 3.79836 16.9297 3.79296 16.9259 3.78738C16.9225 3.78144 16.9189 3.77568 16.9151 3.76974C16.9038 3.7521 16.8912 3.735 16.8782 3.71898C16.8768 3.71736 16.8753 3.71556 16.8744 3.71394C16.859 3.6954 16.8419 3.67884 16.8248 3.66264C16.821 3.6594 16.8177 3.65652 16.8136 3.65346C16.7981 3.63996 16.7821 3.62736 16.7655 3.61602C16.7619 3.6135 16.7585 3.61098 16.7549 3.60864C16.7353 3.5955 16.7144 3.5838 16.693 3.57354C16.6916 3.57282 16.6905 3.57174 16.6889 3.57102L9.24262 -0.00594223C9.08926 -0.0795622 8.91088 -0.0795622 8.7577 -0.00594223L1.3102 3.57084C1.11616 3.66408 0.992676 3.86028 0.992676 4.07556V13.2764C0.992676 13.48 1.10302 13.6674 1.28104 13.7662L8.72854 17.8958C8.72872 17.896 8.72908 17.8961 8.72926 17.8961C8.74888 17.9073 8.7694 17.9167 8.79046 17.9253C8.79406 17.9267 8.79748 17.928 8.80108 17.9291C8.81782 17.9354 8.8351 17.941 8.85274 17.946C8.85832 17.9474 8.8639 17.9491 8.86948 17.9501C8.8855 17.9541 8.90188 17.957 8.91844 17.9597C8.92384 17.9606 8.92942 17.9617 8.935 17.9624C8.95642 17.9651 8.97802 17.9663 9.00016 17.9663C9.02212 17.9663 9.0439 17.9645 9.06514 17.9624C9.07072 17.9617 9.07629 17.9606 9.0817 17.9597C9.09826 17.957 9.11464 17.9545 9.13048 17.9501C9.13605 17.9487 9.142 17.9471 9.14776 17.946C9.16522 17.9413 9.18214 17.9354 9.19906 17.9291C9.20284 17.928 9.20608 17.9266 9.20986 17.9253C9.23038 17.9167 9.25108 17.9071 9.27106 17.8961C9.27142 17.8961 9.27178 17.896 9.27178 17.8958L16.7193 13.7662C16.8971 13.6674 17.0078 13.48 17.0078 13.2764V4.07556C17.0078 4.0752 17.0078 4.07484 17.0078 4.0743C17.0071 4.05018 17.0051 4.02606 17.0019 4.00194ZM15.8882 12.9463L9.55996 16.456V14.4826C9.55996 14.1734 9.30904 13.923 8.99998 13.923C8.69092 13.923 8.44018 14.1737 8.44018 14.4826V16.456L2.11228 12.9467V4.98402C2.77684 5.10084 3.37246 5.42106 3.83092 5.8797L4.96096 7.128C4.77268 7.36704 4.53166 7.7022 4.46452 7.95456C4.31116 8.52966 4.40584 9.11232 4.68196 9.59004L8.41228 7.42824C8.13544 6.95124 7.67698 6.57936 7.10152 6.42618C6.7678 6.33744 6.25732 6.39396 5.93692 6.46002L5.85142 6.51474L4.59034 5.11992C4.1128 4.64256 3.52348 4.27716 2.86594 4.06566L8.99998 1.1196L15.2287 4.1112L11.1702 6.36192C10.8999 6.51186 10.8021 6.8526 10.9523 7.12314C11.0545 7.30746 11.2455 7.41168 11.4424 7.41168C11.534 7.41168 11.6273 7.389 11.7131 7.34112L15.8879 5.02632V8.36586H15.854C15.854 10.2022 14.3604 11.6959 12.524 11.6959C11.8706 11.6959 11.2631 11.5043 10.749 11.178C10.8192 10.9937 10.859 10.7944 10.859 10.5856C10.859 10.1257 10.6727 9.70956 10.3718 9.40824L9.94534 9.8343L9.11842 9.00774L9.11788 9.00828C9.00988 8.9001 8.83456 8.9001 8.72638 9.00846C8.6182 9.11682 8.6182 9.29214 8.72638 9.40014L9.55276 10.2267L8.8351 10.9442L7.98406 10.0931L7.98352 10.0937C7.87516 9.98532 7.69984 9.98532 7.59184 10.0937C7.48366 10.202 7.48366 10.3774 7.59184 10.4855L8.44306 11.3368L8.01664 11.7628C8.31832 12.0641 8.7343 12.2504 9.1942 12.2504C9.49551 12.2504 9.77704 12.1693 10.0211 12.0294C10.7345 12.5181 11.5961 12.8056 12.5242 12.8056C13.8683 12.8056 15.0734 12.2047 15.8882 11.2583V12.9463Z" fill="#545F7D"/>
</svg>
