<svg width="26" height="23" viewBox="0 0 26 23" fill="none" xmlns="http://www.w3.org/2000/svg">
<path d="M18.6464 3.01322C18.6231 2.80927 18.4918 2.62788 18.3006 2.53383L13.2852 0.0661852C13.1059 -0.0220617 12.8942 -0.0220617 12.7149 0.0661852L7.69935 2.53367C7.48724 2.63801 7.35355 2.84931 7.35355 3.08031V3.08039V3.08047V7.19147L0.360173 10.4953C0.15017 10.5922 0.0120188 10.7935 0.000744537 11.0191C-0.0105297 11.2448 0.106924 11.458 0.306326 11.5742L4.71597 14.1439V18.6329C4.71597 18.8642 4.85 19.0757 5.06245 19.1799L12.7155 22.9341C12.8049 22.978 12.9025 23 13 23C13.0975 23 13.195 22.978 13.2845 22.9341L20.9375 19.1799C21.1499 19.0757 21.2839 18.8642 21.2839 18.6329V14.1439L25.6936 11.5742C25.8931 11.458 26.0105 11.2448 25.9993 11.0191C25.988 10.7935 25.8499 10.5922 25.6399 10.4953L18.6464 7.19114V3.01322ZM19.255 8.868L18.6464 9.16477V8.56689L19.255 8.868ZM13.0001 1.29984L16.6191 3.08047L13.0001 4.86101L9.38089 3.08031L13.0001 1.29984ZM7.35347 8.56698V9.1646L6.74516 8.868L7.35347 8.56698ZM1.96515 11.1116L5.33934 9.55412L11.7377 12.6738L8.34686 14.8305L1.96515 11.1116ZM12.3691 21.3911L5.9781 18.2559V14.8794L8.03699 16.0792C8.13703 16.1376 8.24943 16.1666 8.36167 16.1666C8.48224 16.1666 8.60255 16.1331 8.70738 16.0664L12.3691 13.7374V21.3911ZM13.0001 11.9177L8.61559 9.77996V4.07774L12.7149 6.09467C12.8046 6.1388 12.9023 6.16086 13.0002 6.16086C13.0979 6.16086 13.1957 6.1388 13.2854 6.09467L17.3845 4.07791V9.78004L13.0001 11.9177ZM20.022 18.2559L13.6311 21.3911V13.7375L17.2926 16.0665C17.3974 16.1332 17.5178 16.1667 17.6383 16.1667C17.7506 16.1667 17.863 16.1377 17.963 16.0793L20.022 14.8794V18.2559ZM17.653 14.8305L14.2622 12.6738L20.6606 9.55403L24.0348 11.1115L17.653 14.8305Z" fill="#545F7D"/>
</svg>
