<?xml version="1.0" encoding="UTF-8"?>
<!DOCTYPE svg PUBLIC "-//W3C//DTD SVG 1.1//EN" "http://www.w3.org/Graphics/SVG/1.1/DTD/svg11.dtd">
<!-- Creator: CorelDRAW X7 -->
<svg xmlns="http://www.w3.org/2000/svg" xml:space="preserve" width="5.81324in" height="7.73561in" version="1.1" style="shape-rendering:geometricPrecision; text-rendering:geometricPrecision; image-rendering:optimizeQuality; fill-rule:evenodd; clip-rule:evenodd"
viewBox="0 0 5813 7736"
 xmlns:xlink="http://www.w3.org/1999/xlink">
 <defs>
  <style type="text/css">
   <![CDATA[
    .fil0 {fill:#545F7D}
   ]]>
  </style>
 </defs>
 <g id="Layer_x0020_1">
  <metadata id="CorelCorpID_0Corel-Layer"/>
  <g id="_1796016290640">
   <path class="fil0" d="M5632 7736l-5450 0c-101,0 -182,-82 -182,-182l0 -6403c0,-101 81,-182 182,-182l1582 0c100,0 181,81 181,182 0,100 -81,181 -181,181 -167,0 -303,136 -303,303 0,167 136,303 303,303l2286 0c167,0 302,-136 302,-303 0,-167 -135,-303 -302,-303 -101,0 -182,-81 -182,-181 0,-101 81,-182 182,-182l1582 0c100,0 181,81 181,182l0 6403c0,100 -81,182 -181,182zm-5269 -364l5087 0 0 -6040 -807 0c46,91 73,194 73,303 0,367 -299,666 -666,666l-2286 0c-368,0 -666,-299 -666,-666 0,-109 26,-212 72,-303l-807 0 0 6040z"/>
   <path class="fil0" d="M4050 2301l-2286 0c-368,0 -666,-299 -666,-666 0,-367 298,-666 666,-666l106 0 0 -363c0,-334 271,-606 605,-606l863 0c334,0 606,272 606,606l0 363 106 0c367,0 666,299 666,666 0,367 -299,666 -666,666zm-2286 -969c-167,0 -303,136 -303,303 0,167 136,303 303,303l2286 0c167,0 302,-136 302,-303 0,-167 -135,-303 -302,-303l-288 0c-100,0 -182,-81 -182,-181l0 -545c0,-134 -108,-243 -242,-243l-863 0c-133,0 -242,109 -242,243l0 545c0,100 -81,181 -182,181l-287 0z"/>
   <path class="fil0" d="M4534 3388l-2430 0c-100,0 -181,-81 -181,-182 0,-100 81,-181 181,-181l2430 0c100,0 182,81 182,181 0,101 -82,182 -182,182z"/>
   <path class="fil0" d="M4534 4475l-2430 0c-100,0 -181,-81 -181,-182 0,-100 81,-181 181,-181l2430 0c100,0 182,81 182,181 0,101 -82,182 -182,182z"/>
   <path class="fil0" d="M4534 5562l-2430 0c-100,0 -181,-82 -181,-182 0,-100 81,-182 181,-182l2430 0c100,0 182,82 182,182 0,100 -82,182 -182,182z"/>
   <path class="fil0" d="M4534 6649l-2430 0c-100,0 -181,-82 -181,-182 0,-100 81,-182 181,-182l2430 0c100,0 182,82 182,182 0,100 -82,182 -182,182z"/>
   <path class="fil0" d="M1450 3388l-171 0c-100,0 -181,-81 -181,-182 0,-100 81,-181 181,-181l171 0c100,0 181,81 181,181 0,101 -81,182 -181,182z"/>
   <path class="fil0" d="M1450 4475l-171 0c-100,0 -181,-81 -181,-182 0,-100 81,-181 181,-181l171 0c100,0 181,81 181,181 0,101 -81,182 -181,182z"/>
   <path class="fil0" d="M1450 5562l-171 0c-100,0 -181,-82 -181,-182 0,-100 81,-182 181,-182l171 0c100,0 181,82 181,182 0,100 -81,182 -181,182z"/>
   <path class="fil0" d="M1450 6649l-171 0c-100,0 -181,-82 -181,-182 0,-100 81,-182 181,-182l171 0c100,0 181,82 181,182 0,100 -81,182 -181,182z"/>
  </g>
 </g>
</svg>
