<?xml version="1.0" encoding="UTF-8"?>
<!DOCTYPE svg PUBLIC "-//W3C//DTD SVG 1.1//EN" "http://www.w3.org/Graphics/SVG/1.1/DTD/svg11.dtd">
<!-- Creator: CorelDRAW X7 -->
<svg xmlns="http://www.w3.org/2000/svg" xml:space="preserve" width="7.27559in" height="6.2841in" version="1.1" style="shape-rendering:geometricPrecision; text-rendering:geometricPrecision; image-rendering:optimizeQuality; fill-rule:evenodd; clip-rule:evenodd"
viewBox="0 0 2542 2195"
 xmlns:xlink="http://www.w3.org/1999/xlink">
 <defs>
  <style type="text/css">
   <![CDATA[
    .fil0 {fill:#545F7D}
   ]]>
  </style>
 </defs>
 <g id="Layer_x0020_1">
  <metadata id="CorelCorpID_0Corel-Layer"/>
  <path class="fil0" d="M1265 0c-5,1 -11,2 -17,5l-1213 520c-21,9 -35,30 -35,53 0,0 0,0 0,0l0 173c0,32 26,58 58,58l375 0 0 809 -173 0c-1,0 -2,0 -3,0 -1,0 -2,0 -2,0 -30,2 -53,27 -53,57 0,0 0,0 0,0l0 145 -144 0c-32,0 -58,26 -58,58l0 260c0,31 26,57 58,57l2426 0c32,0 58,-26 58,-57l0 -260c0,-32 -26,-58 -58,-58l-145 0 0 -145c0,-31 -25,-57 -57,-57l-174 0 0 -808c0,0 1,-1 0,-1l-115 0c0,0 0,1 0,1l0 808 -116 0 0 -809 607 0c32,0 58,-26 58,-58l0 -173c0,0 0,0 0,0 0,-23 -14,-44 -36,-53l-1213 -520c-7,-3 -15,-5 -23,-5 -1,0 -3,0 -5,0l0 0zm6 121l1155 495 0 77 -2310 0 0 -77 1155 -495zm-722 688l115 0 0 809 -115 0 0 -809zm231 0l318 0 0 809 -318 0 0 -809zm433 0l116 0 0 809 -116 0 0 -809zm231 0l318 0 0 809 -318 0 0 -809zm-1126 924l1906 0 0 145c0,31 26,57 58,57l144 0 0 145 -2310 0 0 -145 144 0c32,0 58,-26 58,-57l0 -145z"/>
 </g>
</svg>
