<svg xmlns="http://www.w3.org/2000/svg" viewBox="0 0 128 160" x="0px" y="0px"><title>bank, building, construction, business, finance, money, company</title><path d="M76.687,15.605c-.794-.248-2.518-.482-5.195.718C67.664,18.037,64,13.739,64,13.739v7.713s3.664,4.3,7.492,2.583a7.907,7.907,0,0,1,4.815-.815.744.744,0,0,0,.891-.736V16.318A.742.742,0,0,0,76.687,15.605Z"/><path d="M64,32.5a1.25,1.25,0,0,1-1.25-1.25V12.739a1.25,1.25,0,0,1,2.5,0V31.252A1.25,1.25,0,0,1,64,32.5Z"/><path d="M126,127.25H2a1.25,1.25,0,0,1,0-2.5H126a1.25,1.25,0,0,1,0,2.5Z"/><path d="M64,32.5a1.25,1.25,0,0,1-1.25-1.25V12.739a1.25,1.25,0,0,1,2.5,0V31.252A1.25,1.25,0,0,1,64,32.5Z"/><path d="M122.97,72.15V65.41a3.25,3.25,0,0,0-3.25-3.25h-6.59a2.346,2.346,0,0,0-1.09-1.93L66.57,30.76a4.8,4.8,0,0,0-5.14,0L15.96,60.23a2.346,2.346,0,0,0-1.09,1.93H8.28a3.25,3.25,0,0,0-3.25,3.25v6.74A3.25,3.25,0,0,0,8.28,75.4h.48L7.67,114.07a3.252,3.252,0,0,0-2.64,3.19V124a3.25,3.25,0,0,0,3.25,3.25H23.72A3.229,3.229,0,0,0,26.264,126h75.472a3.229,3.229,0,0,0,2.544,1.25h15.44a3.25,3.25,0,0,0,3.25-3.25v-6.74a3.252,3.252,0,0,0-2.64-3.19L119.24,75.4h.48A3.25,3.25,0,0,0,122.97,72.15ZM12.5,114.01H10.17L11.26,75.4H12.5Zm4.5,0H15V75.4h2Zm2.5,0V75.4h1.24l1.09,38.61ZM43.688,54.271,62.25,40.941a3,3,0,0,1,3.5,0l18.562,13.33a1,1,0,0,1-.583,1.812H44.271A1,1,0,0,1,43.688,54.271ZM101.03,120.16H26.97v-2.5h74.06ZM35.495,94.9v12.542H31.62a1.745,1.745,0,0,1-1.745-1.745V94.9Zm-5.62-2.5V86.731a6.87,6.87,0,0,1,5.62-6.751V92.4Zm13.74,2.5v10.8a1.745,1.745,0,0,1-1.745,1.745H37.995V94.9Zm-5.62-2.5V79.98a6.869,6.869,0,0,1,5.62,6.751V92.4ZM51,115.161v-18.2a13.1,13.1,0,0,1,13.1-13.1h0a13.1,13.1,0,0,1,13.1,13.1v18.2Zm39-20.259v12.542H86.13a1.745,1.745,0,0,1-1.745-1.745V94.9Zm-5.62-2.5V86.731a6.869,6.869,0,0,1,5.62-6.751V92.4Zm13.74,2.5v10.8a1.745,1.745,0,0,1-1.745,1.745H92.505V94.9Zm-5.62-2.5V79.98a6.87,6.87,0,0,1,5.62,6.751V92.4ZM101.03,65.41v1.75H26.97V65.41a3.2,3.2,0,0,0-.1-.75h74.252A3.2,3.2,0,0,0,101.03,65.41Zm7.47,48.6h-2.33l1.09-38.61h1.24Zm4.5,0h-2V75.4h2Zm2.5,0V75.4h1.24l1.09,38.61Z"/><text x="0" y="143" fill="#000000" font-size="5px" font-weight="bold" font-family="'Helvetica Neue', Helvetica, Arial-Unicode, Arial, Sans-serif">Created by Victoruler</text><text x="0" y="148" fill="#000000" font-size="5px" font-weight="bold" font-family="'Helvetica Neue', Helvetica, Arial-Unicode, Arial, Sans-serif">from the Noun Project</text></svg>