<svg xmlns="http://www.w3.org/2000/svg" data-name="Layer 2" viewBox="0 0 32 40" x="0px" y="0px"><title>Artboard 19</title><path d="M30,11h-.7V9a1,1,0,0,0-1-1H16.54L14.2,4.45A1,1,0,0,0,13.37,4H3.7a1,1,0,0,0-1,1v6H2a1,1,0,0,0-.75.34,1,1,0,0,0-.24.79l2,15A1,1,0,0,0,4,28H28a1,1,0,0,0,1-.87l2-15a1,1,0,0,0-.24-.79A1,1,0,0,0,30,11ZM4.7,6h8.13l2.34,3.5A1,1,0,0,0,16,10H27.3V11H4.7ZM27.12,26H4.88L3.14,13H28.86Z"/><path d="M19.88,16a1,1,0,0,0-1.41,0L16,18.42,13.53,16a1,1,0,1,0-1.41,1.41l2.47,2.47L12.12,22.3a1,1,0,0,0,0,1.42,1,1,0,0,0,.71.29,1,1,0,0,0,.7-.29L16,21.25l2.47,2.47a1,1,0,0,0,.7.29,1,1,0,0,0,.71-.29,1,1,0,0,0,0-1.42l-2.47-2.46,2.47-2.47A1,1,0,0,0,19.88,16Z"/><text x="0" y="47" fill="#000000" font-size="5px" font-weight="bold" font-family="'Helvetica Neue', Helvetica, Arial-Unicode, Arial, Sans-serif">Created by endang firmansyah</text><text x="0" y="52" fill="#000000" font-size="5px" font-weight="bold" font-family="'Helvetica Neue', Helvetica, Arial-Unicode, Arial, Sans-serif">from the Noun Project</text></svg>