<?xml version="1.0" encoding="UTF-8"?>
<!DOCTYPE svg PUBLIC "-//W3C//DTD SVG 1.1//EN" "http://www.w3.org/Graphics/SVG/1.1/DTD/svg11.dtd">
<!-- Creator: CorelDRAW X7 -->
<svg xmlns="http://www.w3.org/2000/svg" xml:space="preserve" width="7.55902in" height="6.2008in" version="1.1" style="shape-rendering:geometricPrecision; text-rendering:geometricPrecision; image-rendering:optimizeQuality; fill-rule:evenodd; clip-rule:evenodd"
viewBox="0 0 6893 5654"
 xmlns:xlink="http://www.w3.org/1999/xlink">
 <defs>
  <style type="text/css">
   <![CDATA[
    .fil0 {fill:#545F7D}
   ]]>
  </style>
 </defs>
 <g id="Layer_x0020_1">
  <metadata id="CorelCorpID_0Corel-Layer"/>
  <path class="fil0" d="M4050 2891c-88,-88 -248,-88 -337,0l-385 385 -377 -385c-88,-88 -249,-88 -337,0 -96,96 -96,241 0,337l385 385 -385 386c-96,96 -96,240 0,337 48,48 104,72 168,72 65,0 121,-24 169,-72l385 -386 385 386c49,48 105,72 169,72 64,0 120,-24 168,-72 97,-97 97,-241 0,-337l-385 -386 385 -385c89,-88 89,-241 -8,-337z"/>
  <path class="fil0" d="M6655 1649l-165 0 0 -471c0,-130 -105,-236 -235,-236l-2771 0 -551 -836c-44,-66 -117,-106 -196,-106l-2278 0c-130,0 -236,106 -236,236l0 1413 -164 0c-38,43 -59,98 -59,156 0,10 1,20 2,30l471 3534c-17,33 -25,70 -25,107 0,68 30,133 82,178l5654 0c1,0 1,0 2,0 118,0 218,-88 233,-205l472 -3534c1,-10 2,-20 2,-30 0,-58 -21,-113 -59,-156 -45,-51 -109,-80 -177,-80 -1,0 -1,0 -2,0l0 0zm-5960 -1178l1915 0 551 825c41,70 115,115 196,118l2662 0 0 235 -5324 0 0 -1178zm5282 4712l-5240 0 -410 -3063 6059 0 -409 3063z"/>
 </g>
</svg>
