<svg xmlns="http://www.w3.org/2000/svg" data-name="Layer 1" viewBox="0 0 128 160" x="0px" y="0px"><title>Miscellaneous 35 final</title><path d="M58,40.19h9.41l.27,0C64,46.86,61.56,52.94,62.07,63.3,62.9,80.58,74.92,89,85.88,89.85Q87.93,90,90,90c1.38,0,2.76-.05,4.15-.15,11-.82,23-9.27,23.81-26.56.58-11.91-2.74-18.17-7.33-26.14a7.13,7.13,0,0,0-.16-7.5A8.38,8.38,0,0,0,112,24.17a8.86,8.86,0,0,0-2.1-4.84,2,2,0,0,0-.16-.35,7.36,7.36,0,0,0-.45-5,8.11,8.11,0,0,0-4.52-3.92,2,2,0,0,0-.62-.1h-5c.62-1.86,1.42-4,2.39-6.26S101.82,0,99.76,0H79.36c-2.06,0-2.83,1.67-1.86,3.83s2.12,4.32,3,6.47a21.06,21.06,0,0,0-6.12,2C70.29,14.57,68.22,15,67.21,15H59.47a2,2,0,0,0,0,4h7.74c2.21,0,5.12-1,9.15-3.27A18,18,0,0,1,83.58,14h20.16a4,4,0,0,1,1.92,1.75,3.47,3.47,0,0,1,.17,2.27,2,2,0,0,0,.17,4h.89a4.83,4.83,0,0,1,1.1,2.55,5.18,5.18,0,0,1-1.55,3.77,2,2,0,0,0,0,2.68,3.31,3.31,0,0,1,.06,4.87,3,3,0,0,0-.72,2.35c0,2.14-.34,2.69-1.68,2.85L85.84,42a17.33,17.33,0,0,1-7.5-1.68l-1.46-.77c-3.13-1.66-6.71-3.35-9.47-3.35H58a2,2,0,0,0,0,4ZM97.05,4c-.89,2.21-1.61,4.28-2.16,6H84.76C84.09,8.27,82.18,4.36,82,4ZM76.47,43.85a21.86,21.86,0,0,0,9,2.15l18.95-.94h.12a5.31,5.31,0,0,0,4.4-2.73c3.4,6.2,5.46,11.53,5,20.78-.71,14.74-10.61,22.05-20.1,22.76C92.54,86,91.25,86,90,86s-2.55,0-3.81-.14c-9.5-.71-19.4-8-20.11-22.76-.47-9.7,1.82-15.09,5.52-21.7C73,42,76.47,43.85,76.47,43.85Z"/><circle cx="50" cy="38" r="2"/><circle cx="10" cy="120.01" r="2"/><path d="M125.67,102.88c-.94-2.22-3.62-3.26-7-2.73-10,1.58-30.72,3.85-30.93,3.87a2,2,0,1,0,.44,4c.21,0,21-2.3,31.12-3.9,1.83-.29,2.64.18,2.7.34s-.3,1.49-2.45,3.11c-8,6-23.46,12.75-27.36,14-9.31,2.95-16.73,3.27-23.36,1a83.39,83.39,0,0,1-12-5.59c-4.81-2.56-9.79-5.21-15.17-6.62A13.93,13.93,0,0,0,35,110.1V91.31c0-.18,0-.35,0-.52l6.25-1.86c.1,0,10.16-3.12,19.71,2.15,1.37.75,2.77,1.49,4.17,2.23,3.2,1.69,6.5,3.43,9.47,5.4,2.17,1.44,3.39,2.78,3.63,4a2.9,2.9,0,0,1-.61,2.2c-.6.88-3.65,1.13-14.8-2.63-1.46-.49-2.61-.88-3.4-1.07a2,2,0,1,0-1,3.88c.63.15,1.76.54,3.08,1,8.63,2.91,16.6,5.18,19.39,1.09a6.76,6.76,0,0,0,1.24-5.22c-.45-2.31-2.2-4.44-5.34-6.53A112.1,112.1,0,0,0,67,89.77c-1.38-.73-2.75-1.45-4.1-2.19C51.84,81.5,40.5,85,40.06,85.11L33.83,87A10.13,10.13,0,0,0,25,82H10a2,2,0,0,0,0,4H25c3.31,0,6,2.38,6,5.31V112.7c0,2.93-2.69,5.31-6,5.31H18a2,2,0,0,0,0,4h7a9.84,9.84,0,0,0,9.83-7.67,9.21,9.21,0,0,1,5.82-.13c4.93,1.3,9.49,3.72,14.31,6.29a86.11,86.11,0,0,0,12.58,5.84A32.22,32.22,0,0,0,78,128a51.24,51.24,0,0,0,15.4-2.66c3.68-1.17,19.79-8,28.56-14.6C126.78,107.11,126.16,104,125.67,102.88Z"/><circle cx="4" cy="26" r="2"/><path d="M20,20H30a2,2,0,0,0,0-4H20a2,2,0,0,0,0,4Z"/><path d="M30,32H20a2,2,0,0,0,0,4H30a2,2,0,0,0,0-4Z"/><path d="M12,28H30a2,2,0,1,0,0-4H12a2,2,0,1,0,0,4Z"/><path d="M86.76,75.92a9,9,0,0,0,1.24.43V78a2,2,0,0,0,4,0V76.52A7.86,7.86,0,0,0,93.64,76a6.1,6.1,0,0,0,3.59-7.3c-1-3.4-4-4.29-6.44-5-1.67-.5-3.12-.93-3.74-2a2.57,2.57,0,0,1,0-2.58c.77-1.23,2.64-1.48,4.14-1.18a4.07,4.07,0,0,1,2.92,2.71,2,2,0,1,0,3.86-1A8,8,0,0,0,92,54V52a2,2,0,0,0-4,0v2a6.69,6.69,0,0,0-4.39,3,6.57,6.57,0,0,0,0,6.7c1.42,2.45,4,3.21,6.06,3.83,2.32.69,3.38,1.12,3.76,2.34A2.15,2.15,0,0,1,92,72.35a4.71,4.71,0,0,1-6.11-2.71,2,2,0,1,0-3.8,1.25A8.46,8.46,0,0,0,86.76,75.92Z"/><text x="0" y="143" fill="#000000" font-size="5px" font-weight="bold" font-family="'Helvetica Neue', Helvetica, Arial-Unicode, Arial, Sans-serif">Created by priyanka</text><text x="0" y="148" fill="#000000" font-size="5px" font-weight="bold" font-family="'Helvetica Neue', Helvetica, Arial-Unicode, Arial, Sans-serif">from the Noun Project</text></svg>