<svg width="754" height="848" viewBox="0 0 754 848" fill="none" xmlns="http://www.w3.org/2000/svg">
<path d="M595.109 159.7H489.359C485.854 159.7 482.491 161.094 480.012 163.574C477.533 166.054 476.141 169.418 476.141 172.925C476.141 176.433 477.533 179.796 480.012 182.277C482.491 184.757 485.854 186.15 489.359 186.15H595.109C598.615 186.15 601.977 184.757 604.456 182.277C606.935 179.796 608.328 176.433 608.328 172.925C608.328 169.418 606.935 166.054 604.456 163.574C601.977 161.094 598.615 159.7 595.109 159.7Z" fill="#4A587E"/>
<path d="M496.63 133.251H582.552C585.664 104.842 593.109 77.0783 604.627 50.9255C609.452 40.4778 624.918 21.9628 620.82 8.53938C619.773 6.14399 618.01 4.13246 615.773 2.78226C613.535 1.43207 610.934 0.809741 608.328 1.00113C607.427 0.922148 606.52 0.922148 605.618 1.00113C588.5 4.17513 578.388 30.6251 561.335 30.6251C559.635 30.6243 557.943 30.3793 556.312 29.8978C548.844 27.4511 546.266 15.9454 539.657 11.9779C538.373 11.1514 536.887 10.6939 535.361 10.6554C528.289 10.6554 522.935 21.1031 518.044 26.327C516.32 28.5412 514.155 30.3724 511.686 31.7043C509.217 33.0362 506.498 33.8397 503.702 34.0636C501.405 33.998 499.15 33.434 497.092 32.4105C489.359 28.5753 482.75 20.8386 474.753 18.5243C473.918 18.2626 473.049 18.1288 472.175 18.1275C469.72 18.162 467.377 19.1575 465.647 20.9004C463.917 22.6434 462.939 24.995 462.922 27.4511C462.922 35.32 468.606 42.6599 472.109 48.2805C472.175 48.545 487.773 71.3581 496.63 133.251ZM534.567 47.2886C538.667 50.9771 543.548 53.6898 548.844 55.2236C552.898 56.4356 557.104 57.0591 561.335 57.0751C565.818 57.1047 570.278 56.4354 574.554 55.0914C568.112 71.8544 563.179 89.1598 559.815 106.801H518.969C515.976 91.0726 511.778 75.5978 506.412 60.5136C517.063 59.5704 527.038 54.8853 534.567 47.2886Z" fill="#4A587E"/>
<path d="M674.817 310.201C650.363 277.998 618.902 246.125 596.232 212.6H488.235C465.565 246.192 434.104 277.998 409.649 310.201C365.763 368.06 329.279 429.226 330.932 504.608C312.888 520.015 296.232 533.968 280.304 546.862C217.118 581.974 196.431 608.226 189.821 619.996L178.652 625.286C174.966 617.266 168.649 610.748 160.75 606.815C152.852 602.882 143.846 601.77 135.228 603.663L66.3583 620.195C64.6701 620.629 63.084 621.391 61.6904 622.439C60.2968 623.486 59.1231 624.798 58.2362 626.299C57.3494 627.801 56.7668 629.462 56.5217 631.189C56.2766 632.915 56.3738 634.673 56.8078 636.362C57.2417 638.051 58.004 639.638 59.051 641.032C60.0979 642.427 61.4092 643.601 62.9098 644.488C64.4103 645.375 66.0709 645.958 67.7967 646.203C69.5224 646.449 71.2795 646.351 72.9677 645.917L140.978 629.188C142.587 628.857 144.246 628.85 145.857 629.168C147.469 629.486 149.001 630.122 150.363 631.039C151.776 631.973 152.989 633.179 153.93 634.587C154.872 635.995 155.525 637.576 155.849 639.239L181.824 768.579C182.205 770.229 182.255 771.939 181.972 773.608C181.688 775.278 181.078 776.875 180.174 778.308C179.271 779.74 178.093 780.979 176.709 781.954C175.324 782.929 173.761 783.619 172.108 783.986L39.9208 821.413C38.0879 821.688 36.3331 822.345 34.7705 823.342C33.2078 824.339 31.8722 825.653 30.8503 827.2C29.8283 828.747 29.143 830.492 28.8386 832.321C28.5343 834.15 28.6178 836.022 29.0837 837.817C29.5496 839.612 30.3876 841.288 31.5431 842.738C32.6987 844.188 34.146 845.378 35.7912 846.232C37.4364 847.086 39.2427 847.584 41.0928 847.694C42.9429 847.804 44.7954 847.524 46.5302 846.871L177.396 809.775C184.511 808.26 191.064 804.791 196.318 799.757C201.572 794.722 205.319 788.322 207.138 781.275L402.247 774.663H403.436L432.584 771.621C460.541 768.777 489.16 767.257 516.853 765.868C548.38 764.215 580.964 762.562 613.218 758.793L617.514 758.33C637.342 756.214 684.004 751.32 681.162 712.042C680.569 704.793 677.833 697.884 673.301 692.196C668.769 686.508 662.648 682.299 655.716 680.104C649.266 678.324 642.534 677.808 635.888 678.583C633.905 678.583 631.989 678.583 630.468 678.583L592.861 677.525C597.888 671.958 601.234 665.08 602.511 657.687C676.205 644.991 747.917 598.704 753.337 514.395C758.558 434.912 720.686 370.573 674.817 310.201ZM614.936 704.967C621.215 704.967 627.428 705.43 633.707 704.967C638.114 704.454 642.574 704.632 646.926 705.496C649.026 705.815 650.952 706.852 652.374 708.432C653.796 710.011 654.627 712.035 654.725 714.158C655.518 725.598 639.325 729.631 614.672 732.276L610.112 732.805C578.717 736.442 546.529 738.095 515.399 739.418C487.375 740.873 458.426 742.327 429.477 745.303L400.727 748.345L205.75 754.957L185.327 651.406L205.155 641.884C206.709 641.191 208.1 640.179 209.238 638.915C210.376 637.651 211.237 636.162 211.765 634.544C211.765 634.544 223.397 608.557 294.051 569.675C294.727 569.315 295.368 568.895 295.968 568.419C314.805 553.21 404.031 473.133 421.546 464.206C422.61 464.076 423.689 464.207 424.69 464.587C425.692 464.967 426.586 465.585 427.296 466.388C433.906 474.323 423.992 490.061 417.647 498.723C395.927 528.926 371.955 557.441 345.935 584.024C325.644 603.862 326.635 621.583 331.064 632.692C354.197 691.014 531.592 702.719 533.311 702.785L572.174 703.843L614.936 704.967ZM367.415 599.894C373.774 606.85 380.741 613.224 388.235 618.938L358.625 627.931C357.373 626.437 356.349 624.765 355.585 622.972C354.791 620.988 352.412 614.905 364.573 603.134L367.415 599.894ZM388.301 646.512L418.241 637.387C427.26 641.904 436.579 645.792 446.133 649.025L418.77 657.026C408.424 654.098 398.251 650.588 388.301 646.512ZM473.628 669.325L502.577 660.597L511.368 661.258C520.224 661.721 528.948 662.25 537.805 662.25H545.207C554.196 662.25 563.317 661.787 572.174 661.324C570.469 662.88 568.436 664.033 566.225 664.697L527.494 676.07C509.429 674.811 491.446 672.559 473.628 669.325ZM726.899 512.874C721.678 591.629 645.34 630.841 572.042 634.874C519.167 637.718 461.863 635.8 416.126 606.242C413.35 604.457 384.467 582.04 385.723 580.652C404.631 559.367 422.455 537.143 439.127 514.064C462.987 481.001 457.105 461.164 447.918 449.526C443.447 443.984 437.269 440.077 430.347 438.414C423.425 436.752 416.148 437.427 409.649 440.335C390.976 451.412 373.729 464.736 358.294 480.01C364.441 421.687 396.166 371.961 430.667 326.533C440.383 313.705 451.288 300.943 462.855 287.454C476.073 271.914 489.755 255.978 501.916 239.381H582.55C594.712 255.978 608.327 271.914 621.612 287.454C633.178 300.679 644.018 313.904 653.799 326.533C694.579 380.029 731.724 439.872 726.833 512.874H726.899Z" fill="#4A587E"/>
<path d="M132.453 754.825C139.754 754.825 145.672 748.904 145.672 741.6C145.672 734.296 139.754 728.375 132.453 728.375C125.153 728.375 119.234 734.296 119.234 741.6C119.234 748.904 125.153 754.825 132.453 754.825Z" fill="#4A587E"/>
<path d="M13.4844 662.25C20.7849 662.25 26.7031 656.329 26.7031 649.025C26.7031 641.721 20.7849 635.8 13.4844 635.8C6.18386 635.8 0.265625 641.721 0.265625 649.025C0.265625 656.329 6.18386 662.25 13.4844 662.25Z" fill="#4A587E"/>
<path d="M174.158 563.79C175.121 565.235 176.36 566.477 177.803 567.444C179.246 568.411 180.865 569.084 182.569 569.425C184.272 569.766 186.025 569.767 187.729 569.43C189.433 569.093 191.054 568.423 192.499 567.459C193.944 566.496 195.185 565.256 196.152 563.813C197.118 562.369 197.791 560.749 198.131 559.045C198.472 557.341 198.474 555.586 198.137 553.882C197.8 552.177 197.13 550.556 196.167 549.11L192.73 543.82C190.855 540.856 187.879 538.759 184.458 537.99C181.037 537.221 177.451 537.844 174.488 539.72C171.526 541.597 169.43 544.574 168.661 547.996C167.893 551.419 168.515 555.007 170.39 557.971L174.158 563.79Z" fill="#4A587E"/>
<path d="M293.788 170.413C299.982 169.301 305.919 167.06 311.303 163.8C314.537 162.441 317.099 159.852 318.425 156.603C319.752 153.354 319.734 149.711 318.375 146.476C317.016 143.24 314.429 140.677 311.181 139.35C307.934 138.023 304.293 138.041 301.058 139.4C296.652 141.252 292.246 143.214 287.84 145.285C285.148 146.59 282.977 148.769 281.684 151.467C280.39 154.165 280.049 157.222 280.716 160.139C281.384 163.056 283.02 165.661 285.359 167.527C287.697 169.393 290.599 170.41 293.59 170.413H293.788Z" fill="#4A587E"/>
<path d="M236.88 207.178C240 207.181 243.02 206.08 245.406 204.07C248.711 201.293 252.082 198.604 255.518 196.003C256.903 194.952 258.067 193.639 258.944 192.138C259.821 190.638 260.394 188.979 260.63 187.256C260.867 185.534 260.762 183.782 260.321 182.1C259.881 180.419 259.113 178.84 258.063 177.455C257.013 176.07 255.7 174.906 254.2 174.028C252.7 173.15 251.042 172.577 249.32 172.341C247.599 172.104 245.848 172.209 244.167 172.65C242.486 173.091 240.908 173.859 239.524 174.909C235.734 177.775 232.011 180.728 228.354 183.77C226.279 185.517 224.792 187.861 224.094 190.483C223.396 193.105 223.521 195.878 224.451 198.426C225.382 200.975 227.074 203.175 229.297 204.729C231.521 206.283 234.168 207.115 236.88 207.112V207.178Z" fill="#4A587E"/>
<path d="M183.013 254.326C185.854 256.375 189.392 257.213 192.849 256.655C196.306 256.097 199.401 254.189 201.454 251.351C203.965 247.868 206.565 244.429 209.253 241.035C210.403 239.688 211.27 238.123 211.804 236.434C212.338 234.745 212.527 232.966 212.36 231.202C212.194 229.439 211.674 227.727 210.834 226.168C209.993 224.609 208.848 223.234 207.466 222.127C206.084 221.019 204.494 220.2 202.79 219.719C201.086 219.238 199.302 219.104 197.546 219.326C195.789 219.548 194.095 220.12 192.563 221.01C191.032 221.899 189.695 223.087 188.631 224.504C185.679 228.207 182.815 231.976 180.039 235.811C179.015 237.221 178.279 238.819 177.874 240.514C177.469 242.208 177.403 243.967 177.679 245.687C177.956 247.408 178.569 249.057 179.485 250.539C180.4 252.022 181.599 253.309 183.013 254.326Z" fill="#4A587E"/>
<path d="M153.339 315.423C154.953 316.068 156.679 316.387 158.417 316.363C160.154 316.34 161.87 315.974 163.467 315.286C165.063 314.598 166.508 313.602 167.718 312.355C168.929 311.107 169.883 309.634 170.524 308.017C172.11 304.006 173.784 300.038 175.547 296.115C176.416 294.514 176.945 292.751 177.101 290.935C177.257 289.12 177.036 287.292 176.453 285.566C175.869 283.84 174.936 282.254 173.711 280.906C172.485 279.558 170.995 278.478 169.333 277.733C167.671 276.988 165.873 276.595 164.052 276.579C162.231 276.562 160.426 276.922 158.751 277.636C157.076 278.35 155.566 279.402 154.316 280.727C153.066 282.053 152.104 283.622 151.489 285.337C149.506 289.745 147.633 294.153 145.871 298.562C144.676 301.792 144.787 305.361 146.182 308.51C147.577 311.659 150.145 314.139 153.339 315.423Z" fill="#4A587E"/>
<path d="M165.499 485.497C164.317 482.286 161.937 479.658 158.859 478.166C155.782 476.673 152.246 476.433 148.994 477.494C145.743 478.556 143.029 480.837 141.423 483.858C139.818 486.879 139.445 490.406 140.384 493.696C141.882 498.105 143.468 502.513 145.142 506.921C146.105 509.417 147.802 511.562 150.008 513.073C152.215 514.585 154.828 515.391 157.502 515.385C159.651 515.39 161.768 514.87 163.671 513.871C165.574 512.872 167.204 511.424 168.422 509.653C169.639 507.881 170.406 505.839 170.657 503.704C170.908 501.569 170.635 499.405 169.861 497.399C168.099 493.564 166.645 489.596 165.499 485.497Z" fill="#4A587E"/>
<path d="M139.591 381.88C141.314 382.102 143.064 381.983 144.741 381.528C146.418 381.074 147.989 380.293 149.364 379.23C150.739 378.168 151.891 376.845 152.754 375.336C153.618 373.828 154.176 372.164 154.396 370.44C154.969 366.032 155.63 361.756 156.379 357.612C156.992 354.157 156.209 350.6 154.201 347.723C152.193 344.846 149.125 342.885 145.672 342.271C142.218 341.657 138.663 342.441 135.787 344.45C132.911 346.459 130.951 349.528 130.338 352.983C129.545 357.612 128.818 362.307 128.157 367.068C127.934 368.792 128.054 370.543 128.508 372.22C128.962 373.898 129.743 375.47 130.805 376.845C131.867 378.221 133.189 379.374 134.697 380.237C136.205 381.101 137.868 381.659 139.591 381.88Z" fill="#4A587E"/>
<path d="M140.913 449.791H142.5C145.978 449.377 149.15 447.598 151.319 444.846C153.488 442.093 154.476 438.592 154.066 435.111C153.581 430.703 153.185 426.405 152.876 422.217C152.64 418.709 151.02 415.44 148.374 413.127C145.727 410.814 142.271 409.648 138.765 409.885C135.259 410.121 131.991 411.742 129.68 414.389C127.368 417.037 126.202 420.495 126.439 424.002C126.747 428.763 127.188 433.502 127.761 438.219C128.164 441.422 129.724 444.366 132.146 446.497C134.569 448.629 137.687 449.8 140.913 449.791Z" fill="#4A587E"/>
<path d="M358.23 148.79C361.194 148.575 364.134 148.111 367.02 147.401C370.389 146.716 373.359 144.745 375.3 141.905C377.24 139.066 377.999 135.582 377.414 132.192C376.829 128.802 374.947 125.774 372.168 123.75C369.388 121.725 365.93 120.864 362.526 121.348L355.916 122.605C354.181 122.774 352.495 123.284 350.956 124.105C349.417 124.926 348.055 126.042 346.947 127.39C344.71 130.112 343.645 133.612 343.987 137.119C344.328 140.626 346.049 143.854 348.77 146.093C351.49 148.331 354.988 149.397 358.494 149.055L358.23 148.79Z" fill="#4A587E"/>
<path d="M399.473 118.172L416.657 128.488L399.473 138.737C397.829 139.526 396.366 140.646 395.176 142.028C393.986 143.409 393.095 145.022 392.558 146.765C392.02 148.507 391.849 150.342 392.055 152.154C392.261 153.967 392.839 155.716 393.753 157.294C394.668 158.872 395.898 160.244 397.368 161.323C398.837 162.402 400.514 163.165 402.292 163.565C404.071 163.965 405.913 163.992 407.702 163.645C409.492 163.299 411.191 162.585 412.692 161.55L449.704 139.861C451.692 138.694 453.34 137.028 454.485 135.027C455.631 133.026 456.233 130.76 456.233 128.455C456.233 126.149 455.631 123.883 454.485 121.882C453.34 119.882 451.692 118.215 449.704 117.048L412.824 95.3592C411.323 94.3241 409.624 93.6108 407.835 93.2641C406.045 92.9174 404.203 92.9448 402.425 93.3445C400.646 93.7442 398.969 94.5076 397.5 95.5867C396.03 96.6659 394.8 98.0374 393.886 99.6152C392.971 101.193 392.393 102.943 392.187 104.755C391.982 106.567 392.153 108.402 392.69 110.145C393.227 111.888 394.119 113.5 395.309 114.882C396.499 116.263 397.961 117.384 399.605 118.172H399.473Z" fill="#4A587E"/>
<path d="M595.917 397C594.93 397.011 593.954 397.217 593.046 397.607C592.139 397.998 591.318 398.564 590.63 399.275C589.943 399.985 589.403 400.825 589.042 401.746C588.68 402.667 588.505 403.65 588.525 404.639V437.065H554.99L527.29 400.118C526.35 398.854 525.035 397.919 523.532 397.448C522.03 396.976 520.418 396.992 518.925 397.494C517.433 397.995 516.136 398.956 515.221 400.239C514.306 401.522 513.819 403.062 513.83 404.639V437.065H503.87C503.611 437.051 503.351 437.051 503.092 437.065C502.111 437.116 501.15 437.36 500.263 437.783C499.376 438.207 498.581 438.801 497.923 439.532C497.266 440.263 496.758 441.116 496.43 442.044C496.102 442.972 495.959 443.955 496.01 444.938C496.061 445.92 496.305 446.883 496.728 447.772C497.15 448.66 497.744 449.456 498.473 450.115C499.203 450.774 500.056 451.282 500.982 451.611C501.908 451.939 502.889 452.082 503.87 452.031H513.83V459.513H503.87C503.611 459.5 503.351 459.5 503.092 459.513C502.111 459.564 501.15 459.809 500.263 460.232C499.376 460.655 498.581 461.249 497.923 461.98C497.266 462.711 496.758 463.565 496.43 464.493C496.102 465.42 495.959 466.403 496.01 467.386C496.061 468.369 496.305 469.332 496.728 470.22C497.15 471.109 497.744 471.905 498.473 472.564C499.203 473.222 500.056 473.73 500.982 474.059C501.908 474.388 502.889 474.531 503.87 474.479H513.83V504.411C513.816 505.402 513.998 506.387 514.367 507.307C514.737 508.227 515.285 509.064 515.98 509.771C516.675 510.477 517.503 511.037 518.416 511.42C519.329 511.803 520.309 512 521.299 512C522.289 512 523.269 511.803 524.182 511.42C525.095 511.037 525.924 510.477 526.619 509.771C527.314 509.064 527.862 508.227 528.231 507.307C528.6 506.387 528.783 505.402 528.769 504.411V474.479H564.249L590.004 508.854C590.94 510.113 592.248 511.045 593.743 511.518C595.238 511.991 596.843 511.982 598.332 511.49C599.821 510.999 601.118 510.051 602.039 508.78C602.96 507.51 603.459 505.981 603.465 504.411V474.479H613.424C614.414 474.493 615.397 474.31 616.315 473.94C617.234 473.57 618.07 473.022 618.775 472.325C619.479 471.629 620.039 470.799 620.421 469.885C620.803 468.97 621 467.988 621 466.996C621 466.005 620.803 465.023 620.421 464.108C620.039 463.193 619.479 462.364 618.775 461.667C618.07 460.971 617.234 460.422 616.315 460.052C615.397 459.683 614.414 459.499 613.424 459.513H603.465V452.031H613.424C614.414 452.045 615.397 451.861 616.315 451.492C617.234 451.122 618.07 450.573 618.775 449.877C619.479 449.18 620.039 448.351 620.421 447.436C620.803 446.521 621 445.539 621 444.548C621 443.556 620.803 442.574 620.421 441.659C620.039 440.745 619.479 439.915 618.775 439.219C618.07 438.523 617.234 437.974 616.315 437.604C615.397 437.234 614.414 437.051 613.424 437.065H603.465V404.639C603.485 403.637 603.305 402.641 602.934 401.71C602.563 400.779 602.009 399.932 601.305 399.219C600.601 398.507 599.762 397.943 598.836 397.562C597.91 397.181 596.918 396.99 595.917 397ZM528.769 427.088L536.238 437.065H528.769V427.088ZM528.769 452.031H547.443L553.045 459.513H528.769V452.031ZM566.194 452.031H588.525V459.513H571.797L566.194 452.031ZM583.001 474.479H588.525V481.884L583.001 474.479Z" fill="#4A587E"/>
</svg>
