<svg width="20" height="16" viewBox="0 0 20 16" fill="none" xmlns="http://www.w3.org/2000/svg">
<path d="M13.6899 12.0873C14.4745 11.7635 15.3254 11.3615 16.1785 10.9497C16.3675 10.8584 16.5568 10.7666 16.7455 10.6751C17.4421 10.3372 18.1295 10.0038 18.759 9.72027L18.6462 9.40858M13.6899 12.0873L11.9996 9.13618C12.1077 9.18066 12.2027 9.22087 12.295 9.26298L12.4672 9.34155L12.6226 9.29418L13.1046 9.7477C13.2098 9.84672 13.2817 9.91652 13.3311 9.97434C13.399 10.054 13.4241 10.1109 13.4345 10.1902L13.4347 10.1917C13.4403 10.2334 13.41 10.3296 13.3442 10.3843C13.27 10.4403 13.1828 10.4793 13.0733 10.5036C13.0043 10.519 12.9266 10.5285 12.8377 10.5327C12.6697 10.5407 12.513 10.5307 12.3291 10.519C12.2289 10.5126 12.1207 10.5056 11.9981 10.5008L11.9637 10.4991L11.9637 10.4991L8.10411 10.3041L8.11976 9.98459M13.6899 12.0873L13.5616 11.7826M13.6899 12.0873L13.6896 12.0874L13.5616 11.7826M18.6462 9.40858L18.7808 9.71045C18.805 9.69959 18.8291 9.68881 18.853 9.6781L18.8675 9.67167L18.8822 9.66616C19.3379 9.49629 19.4978 9.11936 19.5 8.83609C19.4966 8.67932 19.4555 8.50933 19.376 8.34185C19.3665 8.3227 19.3566 8.3038 19.3462 8.28517C19.3453 8.28344 19.3443 8.2817 19.3433 8.27997C19.0972 7.8424 18.6053 7.55613 18.0763 7.64128C18.06 7.6439 18.0437 7.64687 18.0274 7.6502C18.013 7.65313 17.9987 7.65633 17.9843 7.65981L13.3521 9.0718L12.6805 9.27653C12.6877 9.28045 12.6949 9.28438 12.702 9.28833C12.8739 9.38338 13.0514 9.49994 13.2011 9.64518C13.2856 9.72723 13.3612 9.81844 13.4219 9.92009L13.5724 10.1721L13.573 10.1732L13.7683 10.5002L13.4924 10.5682L13.6532 10.7774M18.6462 9.40858C19.0694 9.25538 19.2041 8.88557 18.9949 8.45643C18.8449 8.16021 18.5257 7.90031 18.1212 7.9577L13.9948 9.2165C13.9368 9.15623 13.8802 9.10357 13.8302 9.05703C13.8162 9.04402 13.8027 9.03149 13.7899 9.01941L13.4472 9.38355L13.5931 9.86179L13.8158 9.79386C13.8724 9.88873 13.9133 9.9959 13.9303 10.1253C13.9619 10.3612 13.842 10.6266 13.6532 10.7774M18.6462 9.40858C17.955 9.71692 17.2001 10.0815 16.4385 10.4492C15.4491 10.927 14.4484 11.4102 13.5616 11.7826M13.6532 10.7774L13.4871 10.5695L13.1123 10.6619C12.757 10.7494 12.4507 10.7212 12.1817 10.6965C12.1163 10.6905 12.0531 10.6847 11.9919 10.6808L11.9757 11.0003M13.6532 10.7774C13.2612 11.0788 12.7628 11.0475 12.2623 11.0161C12.1666 11.01 12.0709 11.004 11.9757 11.0003M11.9757 11.0003L11.9882 10.6805C11.9769 10.6798 11.9658 10.6792 11.9546 10.6786L11.9546 10.6786L8.0953 10.484M11.9757 11.0003L8.07004 10.803C7.83199 10.7913 7.62723 10.5857 7.64024 10.3714C7.65326 10.1572 7.88172 9.97293 8.11976 9.98459M8.0953 10.484C8.10394 10.4844 8.10851 10.4829 8.10909 10.4827L8.10953 10.4825C8.10975 10.4823 8.11491 10.4782 8.12137 10.4669C8.1281 10.4551 8.13742 10.433 8.13932 10.4017L8.09945 10.3993M8.0953 10.484L8.09945 10.3993M8.0953 10.484L8.09458 10.484L8.09885 10.3993L8.10362 10.3047C8.1013 10.3042 8.09855 10.3038 8.09527 10.3036L8.10365 10.3041L8.11976 9.98459M8.09945 10.3993L8.13933 10.4017C8.14123 10.3703 8.13463 10.3462 8.12857 10.332C8.12276 10.3183 8.11694 10.312 8.11528 10.3104C8.11524 10.3103 8.11519 10.3103 8.11514 10.3102C8.1143 10.3093 8.11162 10.3065 8.10408 10.3048L8.09945 10.3993ZM8.11976 9.98459L11.9798 10.1793C12.0925 10.185 12.1915 10.1939 12.2832 10.2021C12.284 10.2022 12.2849 10.2023 12.2858 10.2023C12.4569 10.3048 12.5354 10.3859 12.5633 10.4327L12.9926 10.1764L12.873 9.69094C12.7046 9.73243 12.6095 9.72786 12.4351 9.71225C11.9388 9.44383 11.2265 9.23049 10.5751 9.03536C10.2629 8.94186 9.9647 8.85254 9.7109 8.76335C8.10429 8.37758 6.10884 8.11337 4.15612 8.13673C3.99752 8.77051 3.86222 9.44549 3.74481 10.1493C3.74139 10.1489 3.73796 10.1484 3.73453 10.1479L3.666 10.6432L4.16027 10.7187C4.16029 10.7185 4.16031 10.7184 4.16033 10.7183C5.55054 10.9479 6.78728 11.3067 7.98767 11.6549C8.01999 11.6643 8.05229 11.6737 8.08457 11.683C8.25256 11.7317 8.41799 11.7813 8.58214 11.8306C9.47905 12.0997 10.3377 12.3572 11.3669 12.3893C12.1319 12.3669 12.8344 12.0888 13.5616 11.7826M12.512 9.19014L12.4767 9.15688L12.5976 9.12L13.3013 8.90531L17.9307 7.49308L12.512 9.19014ZM12.512 9.19014C12.4625 9.1661 12.4118 9.14265 12.3603 9.11976C12.2621 9.07608 12.1607 9.03445 12.0579 8.99466L12.19 8.67382L12.512 9.19014ZM13.3128 5.79912C13.3128 5.79911 13.3128 5.79912 13.3128 5.79912ZM3.83724 5.60738L3.94308 5.29803C4.06926 5.34164 4.1632 5.40254 4.22932 5.48056C4.23247 5.49207 4.23631 5.51054 4.23883 5.53795C4.24111 5.5628 4.24199 5.5915 4.24119 5.62422L3.83724 5.60738ZM17.9753 7.47946L17.946 7.4884L19.4705 8.2936C19.4621 8.27469 19.4534 8.25593 19.4443 8.23733L19.4444 8.23731L19.441 8.23052C19.2279 7.80984 18.7329 7.36589 18.051 7.46266L18.0125 7.46812L17.9753 7.47946ZM19.5921 8.83168C19.5912 8.64849 19.5465 8.46706 19.4723 8.29768L19.5921 8.83168ZM19.5273 9.20771C19.5717 9.08626 19.5918 8.96242 19.5921 8.83932L13.7554 12.2435C14.5535 11.9083 15.4382 11.4867 16.3135 11.0647C16.4281 11.0095 16.5425 10.9542 16.6566 10.8991C17.4135 10.5337 18.1555 10.1754 18.8352 9.87178C18.865 9.86052 18.8943 9.84832 18.9232 9.83516C18.9295 9.83229 18.9357 9.82937 18.942 9.82641C19.2053 9.70143 19.4219 9.49579 19.5273 9.20771Z" fill="#545F7D" stroke="#545F7D"/>
</svg>
