<svg width="20" height="19" viewBox="0 0 20 19" fill="none" xmlns="http://www.w3.org/2000/svg">
<path d="M16.9979 5.04777C16.7324 4.80889 16.3157 4.77366 16.0054 4.96396C14.8364 5.68108 8.973 9.28709 8.34284 9.8542C7.42901 10.6767 7.42901 12.0149 8.34284 12.8373C8.79976 13.2485 9.39999 13.4542 10.0001 13.4542C10.6003 13.4542 11.2005 13.2485 11.6575 12.8373C12.2876 12.2702 16.2942 6.99311 17.091 5.94102C17.3024 5.66178 17.2633 5.28673 16.9979 5.04777ZM10.5525 11.8429C10.248 12.1171 9.75229 12.1171 9.44772 11.8429C9.14311 11.5688 9.14308 11.1229 9.44757 10.8487C9.69241 10.631 11.3571 9.56244 13.4053 8.2811C11.9817 10.1245 10.7944 11.6227 10.5525 11.8429Z" fill="#545F7D"/>
<path d="M3.60277 14.616L2.63832 15.0394C1.93262 13.9059 1.5625 12.6408 1.5625 11.3456C1.5625 10.3967 1.75691 9.48792 2.11172 8.64976L3.21684 9.12683C3.32582 9.17387 3.44086 9.19616 3.55418 9.19616C3.84531 9.19616 4.1248 9.04903 4.25914 8.79696C4.4457 8.44683 4.28164 8.02682 3.89258 7.85888L2.80148 7.38786C4.15762 5.39731 6.50398 4.00952 9.21879 3.78417V4.8417C9.21879 5.23004 9.56855 5.54483 10 5.54483C10.4315 5.54483 10.7813 5.23004 10.7813 4.8417V3.78364C11.7121 3.85989 12.6127 4.07322 13.4677 4.42056C13.8608 4.58035 14.3236 4.42288 14.5011 4.06904C14.6787 3.71508 14.5038 3.29866 14.1105 3.13887C12.815 2.61255 11.432 2.34564 10 2.34564C7.32891 2.34564 4.8177 3.28178 2.92891 4.98166C1.0402 6.68157 0 8.94166 0 11.3456C0 13.1221 0.585859 14.8498 1.69426 16.3419C1.84355 16.5428 2.09039 16.6543 2.34422 16.6543C2.45961 16.6543 2.57648 16.6312 2.68629 16.583L4.28785 15.8799C4.67566 15.7097 4.83668 15.2887 4.6475 14.9397C4.45832 14.5907 3.99059 14.4458 3.60277 14.616Z" fill="#545F7D"/>
<path d="M19.1186 7.64597C18.9411 7.29205 18.4784 7.13455 18.085 7.2944C17.6918 7.45419 17.5169 7.87061 17.6945 8.22453C18.1875 9.20743 18.4375 10.2574 18.4375 11.3454C18.4375 12.6424 18.0661 13.9096 17.3584 15.0445L16.3515 14.6129C15.962 14.446 15.4957 14.5948 15.3102 14.9455C15.1247 15.296 15.2901 15.7156 15.6797 15.8826L17.3203 16.5857C17.4283 16.6319 17.5427 16.6541 17.6558 16.6541C17.9097 16.6541 18.1566 16.5424 18.3057 16.3417C19.4141 14.8496 20 13.1218 20 11.3454C20 10.0566 19.7034 8.81192 19.1186 7.64597Z" fill="#545F7D"/>
</svg>
