<?xml version="1.0" encoding="UTF-8"?>
<!DOCTYPE svg PUBLIC "-//W3C//DTD SVG 1.1//EN" "http://www.w3.org/Graphics/SVG/1.1/DTD/svg11.dtd">
<!-- Creator: CorelDRAW X7 -->
<svg xmlns="http://www.w3.org/2000/svg" xml:space="preserve" width="7.85433in" height="3.85276in" version="1.1" style="shape-rendering:geometricPrecision; text-rendering:geometricPrecision; image-rendering:optimizeQuality; fill-rule:evenodd; clip-rule:evenodd"
viewBox="0 0 8426 4133"
 xmlns:xlink="http://www.w3.org/1999/xlink">
 <defs>
  <style type="text/css">
   <![CDATA[
    .fil0 {fill:#545F7D}
   ]]>
  </style>
 </defs>
 <g id="Layer_x0020_1">
  <metadata id="CorelCorpID_0Corel-Layer"/>
  <g id="_1795922379504" i:extraneous="self">
   <g>
    <path class="fil0" d="M6360 0l-4293 0c0,0 0,0 0,0 -1136,0 -2067,922 -2067,2067 0,1144 931,2066 2067,2066 0,0 4293,0 4293,0 1135,0 2066,-922 2066,-2066 0,-1145 -931,-2067 -2066,-2067zm-4293 3583c-834,0 -1517,-683 -1517,-1516 0,-834 683,-1517 1517,-1517 833,0 1516,683 1516,1517 0,833 -683,1516 -1516,1516zm4293 0l-2892 0c408,-381 665,-913 665,-1516 0,-603 -257,-1136 -665,-1517l2883 0c834,0 1517,683 1517,1517 0,833 -674,1516 -1508,1516z"/>
    <path class="fil0" d="M6723 1268c-97,-97 -275,-97 -372,0l-426 426 -417 -426c-97,-97 -275,-97 -372,0 -107,107 -107,267 0,373l425 426 -425 425c-107,107 -107,267 0,373 53,53 115,80 186,80 71,0 133,-27 186,-80l426 -426 426 426c53,53 115,80 186,80 71,0 133,-27 186,-80 107,-106 107,-266 0,-373l-425 -425 425 -426c98,-98 98,-266 -9,-373z"/>
   </g>
  </g>
 </g>
</svg>
