<?xml version="1.0" encoding="UTF-8"?>
<!DOCTYPE svg PUBLIC "-//W3C//DTD SVG 1.1//EN" "http://www.w3.org/Graphics/SVG/1.1/DTD/svg11.dtd">
<!-- Creator: CorelDRAW X7 -->
<svg xmlns="http://www.w3.org/2000/svg" xml:space="preserve" width="6.71752in" height="7.75098in" version="1.1" style="shape-rendering:geometricPrecision; text-rendering:geometricPrecision; image-rendering:optimizeQuality; fill-rule:evenodd; clip-rule:evenodd"
viewBox="0 0 6718 7751"
 xmlns:xlink="http://www.w3.org/1999/xlink">
 <defs>
  <style type="text/css">
   <![CDATA[
    .fil0 {fill:#545F7D}
   ]]>
  </style>
 </defs>
 <g id="Layer_x0020_1">
  <metadata id="CorelCorpID_0Corel-Layer"/>
  <path class="fil0" d="M5426 7751l-4134 0c-129,0 -259,-103 -259,-233l-490 -5968 -285 0c-155,0 -258,-103 -258,-258 0,-155 103,-259 258,-259l1861 0 206 -826c26,-129 129,-207 259,-207l1550 0c129,0 232,78 258,207l207 826 1860 0c155,0 259,104 259,259 0,155 -104,258 -259,258l-284 0 -491 5968c0,130 -129,233 -258,233zm-3902 -517l3669 0 465 -5684 -1266 0c0,0 0,0 0,0l-2067 0c0,0 0,0 0,0l-1266 0 465 5684zm1137 -6201l1395 0 -129 -516 -1137 0 -129 516zm1731 5168c0,0 -26,0 0,0 -155,0 -258,-129 -258,-284l258 -3101c0,-129 129,-258 284,-232 155,0 259,129 233,284l-258 3100c0,129 -130,233 -259,233zm-2067 0c-129,0 -258,-104 -258,-233l-258 -3100c0,-155 103,-259 232,-284 155,0 258,103 284,232l259 3101c0,155 -104,284 -259,284 26,0 0,0 0,0zm1034 0c-155,0 -259,-104 -259,-259l0 -3100c0,-155 104,-258 259,-258 155,0 258,103 258,258l0 3100c0,155 -103,259 -258,259z"/>
 </g>
</svg>
