<?xml version="1.0" encoding="UTF-8"?>
<!DOCTYPE svg PUBLIC "-//W3C//DTD SVG 1.1//EN" "http://www.w3.org/Graphics/SVG/1.1/DTD/svg11.dtd">
<!-- Creator: CorelDRAW X7 -->
<svg xmlns="http://www.w3.org/2000/svg" xml:space="preserve" width="4.14693in" height="4.47667in" version="1.1" style="shape-rendering:geometricPrecision; text-rendering:geometricPrecision; image-rendering:optimizeQuality; fill-rule:evenodd; clip-rule:evenodd"
viewBox="0 0 4147 4477"
 xmlns:xlink="http://www.w3.org/1999/xlink">
 <defs>
  <style type="text/css">
   <![CDATA[
    .fil0 {fill:#545F7D}
   ]]>
  </style>
 </defs>
 <g id="Layer_x0020_1">
  <metadata id="CorelCorpID_0Corel-Layer"/>
  <g id="_1795920594416">
   <g>
    <path class="fil0" d="M121 4079c11,0 17,0 29,-6l979 -241c0,0 0,0 6,0 5,0 11,-6 23,-6 0,0 5,0 5,-6 6,-6 18,-11 23,-17l2558 -2569 242 -242c63,-63 103,-150 103,-242 0,-92 -34,-178 -103,-242l-409 -409c-133,-132 -352,-132 -490,0l-242 242 -2563 2563c-6,6 -11,18 -17,23 0,0 0,6 -6,6 -6,6 -6,12 -6,17 0,0 0,0 0,6l-241 979c-12,41 0,81 28,110 18,23 46,34 81,34zm973 -524l-201 -201 2402 -2402 149 150 52 51 -2402 2402zm2160 -3294c46,-46 115,-46 161,0l409 409 0 0c23,23 35,51 35,80 0,29 -12,58 -35,81l-161 161 -518 -518 -52 -52 161 -161zm-322 322l201 202 -2402 2407 -201 -201 2402 -2408zm-2506 2632l444 444 -329 80 -195 -201 80 -323zm3606 1031l-3917 0c-63,0 -115,52 -115,115 0,64 52,116 115,116l3917 0c63,0 115,-52 115,-116 0,-63 -52,-115 -115,-115z"/>
   </g>
  </g>
 </g>
</svg>
