<svg width="13" height="16" viewBox="0 0 13 16" fill="none" xmlns="http://www.w3.org/2000/svg">
<path d="M12.6319 3.98763L9.00277 0.721378C8.76769 0.515165 8.45298 0.399628 8.125 0.399628H1.625C0.727729 0.399628 0 1.05458 0 1.86213V14.5371C0 15.3447 0.727729 15.9996 1.625 15.9996H11.375C12.2723 15.9996 13 15.3447 13 14.5371V4.78713C12.9986 4.48756 12.8665 4.20018 12.6319 3.98763ZM8.66667 1.79388L11.4508 4.29963H9.56583C9.0675 4.29427 8.66667 3.92913 8.66667 3.48063V1.79388ZM11.9167 14.5371C11.9167 14.8062 11.674 15.0246 11.375 15.0246H1.625C1.326 15.0246 1.08333 14.8062 1.08333 14.5371V1.86213C1.08333 1.59303 1.326 1.37463 1.625 1.37463H7.58333V3.48063C7.58035 3.95545 7.78808 4.41175 8.16021 4.74862C8.53233 5.08548 9.03798 5.27463 9.56583 5.27463H11.9167V14.5371Z" fill="#193152"/>
<path d="M7.58333 10.3934H3.25V11.1246H7.58333V10.3934Z" fill="#193152"/>
<path d="M9.75 7.46838H3.25V8.19963H9.75V7.46838Z" fill="#193152"/>
<path d="M9.75 8.93088H3.25V9.66213H9.75V8.93088Z" fill="#193152"/>
</svg>
