<?xml version="1.0" encoding="UTF-8"?>
<!DOCTYPE svg PUBLIC "-//W3C//DTD SVG 1.1//EN" "http://www.w3.org/Graphics/SVG/1.1/DTD/svg11.dtd">
<!-- Creator: CorelDRAW X7 -->
<svg xmlns="http://www.w3.org/2000/svg" xml:space="preserve" width="4.79838in" height="4.80359in" version="1.1" style="shape-rendering:geometricPrecision; text-rendering:geometricPrecision; image-rendering:optimizeQuality; fill-rule:evenodd; clip-rule:evenodd"
viewBox="0 0 4798 4804"
 xmlns:xlink="http://www.w3.org/1999/xlink">
 <defs>
  <style type="text/css">
   <![CDATA[
    .fil0 {fill:#545F7D}
   ]]>
  </style>
 </defs>
 <g id="Layer_x0020_1">
  <metadata id="CorelCorpID_0Corel-Layer"/>
  <path class="fil0" d="M3101 4800l-366 -2 0 -1031 0 -1032 1032 0 1031 0 0 1034 0 1035 -665 -2c-366,0 -830,-2 -1032,-2l0 0zm-3101 -1033l0 -1032 1034 0 1034 0 0 1032 0 1031 -1034 0 -1034 0 0 -1031zm0 -2733l0 -1034 1034 0 1034 0 0 1034 0 1034 -1034 0 -1034 0 0 -1034zm2735 0l0 -1034 1032 0 1031 0 0 1034 0 1034 -1031 0 -1032 0 0 -1034z"/>
 </g>
</svg>
