<svg width="20" height="16" viewBox="0 0 20 16" fill="none" xmlns="http://www.w3.org/2000/svg">
<path d="M18.4802 10.7948C17.431 9.95014 16.2961 9.21704 15.094 8.60741V7.64132C15.2303 7.39981 15.3314 7.14018 15.3941 6.87027C15.59 6.73903 15.7456 6.44009 15.8902 5.92606C16.0476 5.3701 16.0366 5.01465 15.8517 4.78862C15.8174 4.74721 15.7766 4.71152 15.7309 4.6829C15.7309 4.64462 15.7474 4.60452 15.7547 4.56442C15.9249 3.54365 15.8279 2.79265 15.4637 2.3333C15.3249 2.15251 15.133 2.01934 14.9146 1.95233C14.7306 1.69782 14.4909 1.48837 14.2135 1.33987C13.7523 1.07258 13.2177 0.958315 12.687 1.01359C12.475 1.024 12.2656 1.06389 12.0647 1.13207C11.8318 1.2125 11.6112 1.32477 11.4094 1.46564C11.1647 1.61953 10.9403 1.80323 10.7413 2.01249C10.3826 2.36733 10.1292 2.81392 10.0091 3.30303C9.91409 3.71324 9.91409 4.13963 10.0091 4.54984V4.56442C10.0165 4.60209 10.0244 4.64037 10.0329 4.67926C9.98736 4.70797 9.94659 4.74365 9.91214 4.78498C9.7291 5.00554 9.71629 5.36645 9.8737 5.92241C10.0183 6.43462 10.1739 6.73538 10.3697 6.8648C10.4322 7.13827 10.5333 7.40155 10.6699 7.64679V8.60194C9.46773 9.21158 8.33283 9.94468 7.28371 10.7893C7.12076 10.9235 6.98976 11.092 6.90018 11.2827C6.8106 11.4734 6.76467 11.6816 6.76571 11.8921V14.7175C6.76571 14.79 6.79463 14.8595 6.84612 14.9108C6.89761 14.9621 6.96745 14.9909 7.04027 14.9909H18.7254C18.7983 14.9909 18.8681 14.9621 18.9196 14.9108C18.9711 14.8595 19 14.79 19 14.7175V11.8976C19.0008 11.6869 18.9546 11.4786 18.8647 11.2879C18.7748 11.0972 18.6434 10.9288 18.4802 10.7948ZM18.449 14.4404H7.30933V11.8885C7.30905 11.7608 7.33674 11.6347 7.39049 11.5188C7.44423 11.403 7.52273 11.3002 7.6205 11.2177C8.66598 10.3804 9.79878 9.65748 10.9994 9.06129C11.0633 9.02984 11.1172 8.98131 11.155 8.92111C11.1928 8.86092 11.2131 8.79143 11.2135 8.72042V7.59028C11.2136 7.5423 11.201 7.49515 11.1769 7.45357C11.0291 7.20336 10.928 6.92853 10.8786 6.64242C10.8701 6.58755 10.8451 6.53654 10.8069 6.49616C10.7686 6.45579 10.7189 6.42796 10.6644 6.41639C10.6333 6.3854 10.529 6.25416 10.3972 5.78752C10.2727 5.35005 10.3093 5.19693 10.324 5.15865H10.3441C10.3899 5.16339 10.4362 5.15632 10.4785 5.13813C10.5208 5.11994 10.5577 5.09123 10.5857 5.05475C10.6139 5.01858 10.6326 4.97592 10.64 4.93069C10.6473 4.88546 10.6431 4.83912 10.6278 4.79591C10.594 4.69841 10.5677 4.59847 10.5491 4.49697V4.47875C10.4703 4.14056 10.4703 3.78887 10.5491 3.45068C10.649 3.05378 10.8575 2.69223 11.1513 2.40621C11.3229 2.22543 11.5166 2.06682 11.7279 1.93411C11.8917 1.81866 12.071 1.72662 12.2605 1.66068C12.4149 1.60911 12.5756 1.57905 12.7382 1.57137C13.1617 1.52562 13.5888 1.61566 13.9573 1.82838C14.181 1.94747 14.3702 2.122 14.5064 2.33512C14.5286 2.37481 14.5599 2.40872 14.5977 2.43406C14.6356 2.4594 14.6789 2.47547 14.7242 2.48095C14.8562 2.51028 14.9716 2.58932 15.0464 2.70151C15.2294 2.93483 15.3905 3.43063 15.2148 4.48421C15.1933 4.58975 15.1633 4.69339 15.1251 4.79409C15.1097 4.83729 15.1056 4.88364 15.1129 4.92886C15.1203 4.97409 15.1389 5.01675 15.1672 5.05293C15.1953 5.08927 15.2322 5.11788 15.2745 5.13606C15.3167 5.15424 15.363 5.16139 15.4088 5.15683H15.4289C15.4436 5.19511 15.4802 5.34823 15.3557 5.7857C15.2239 6.25234 15.1196 6.38358 15.0885 6.41457C15.0339 6.42614 14.9843 6.45397 14.946 6.49434C14.9078 6.53471 14.8827 6.58573 14.8743 6.6406C14.8249 6.92327 14.7237 7.1945 14.576 7.44081C14.551 7.48275 14.5377 7.53058 14.5375 7.57934V8.72042C14.5386 8.7922 14.56 8.86223 14.5991 8.92251C14.6383 8.98278 14.6937 9.03087 14.759 9.06129C15.9577 9.65783 17.0886 10.3808 18.1324 11.2177C18.2329 11.3007 18.3137 11.4049 18.3687 11.5228C18.4238 11.6407 18.4519 11.7694 18.4509 11.8994L18.449 14.4404ZM6.15619 14.7266C6.15619 14.7991 6.12726 14.8686 6.07577 14.9199C6.02428 14.9712 5.95445 15 5.88163 15H1.27456C1.20174 15 1.13191 14.9712 1.08042 14.9199C1.02893 14.8686 1 14.7991 1 14.7266V11.9924C1.02068 11.7262 1.11165 11.4701 1.26369 11.2502C1.41573 11.0303 1.62344 10.8543 1.86577 10.7401C2.19947 10.5774 2.54749 10.4456 2.90543 10.3464H2.92556L3.03539 10.3136C3.54933 10.1784 4.05131 10.0016 4.5363 9.78494L4.56193 9.76854C4.57596 9.75788 4.58726 9.74407 4.59489 9.72823C4.60253 9.71238 4.60629 9.69497 4.60586 9.6774V9.29461C2.95851 9.23263 2.4094 8.48164 2.38926 8.44882C2.36113 8.4081 2.3446 8.36055 2.34145 8.31121C2.3383 8.26188 2.34863 8.21263 2.37135 8.16868C2.39408 8.12473 2.42834 8.08774 2.47049 8.06164C2.51264 8.03554 2.56111 8.02131 2.61074 8.02046C2.79378 7.99677 3.32276 7.52284 3.27883 5.65081C3.2111 2.86191 4.54545 2.35517 5.04698 2.17289C6.25137 1.71719 6.98718 2.20753 7.24344 2.4372C7.47311 2.42074 7.70365 2.45373 7.91938 2.53394C8.1351 2.61415 8.33095 2.73969 8.49359 2.90202C9.0848 3.49443 9.33007 4.65374 9.17998 6.1612C9.01891 7.77985 9.80964 8.05327 9.84441 8.06421C9.88895 8.07874 9.92908 8.10423 9.96107 8.13833C9.99307 8.17243 10.0159 8.21402 10.0275 8.25925C10.039 8.30429 10.0389 8.35153 10.027 8.3965C10.0152 8.44148 9.99203 8.4827 9.95973 8.51627C9.16717 9.32377 7.58938 9.28185 7.52166 9.28185C7.4856 9.2809 7.45008 9.27289 7.41713 9.25827C7.38418 9.24365 7.35445 9.22271 7.32963 9.19664C7.30481 9.17057 7.2854 9.13988 7.27249 9.10634C7.25959 9.07279 7.25345 9.03704 7.25442 9.00113C7.25487 8.96492 7.26264 8.92916 7.27727 8.89599C7.29189 8.86283 7.31308 8.83294 7.33955 8.8081C7.36603 8.78327 7.39726 8.76399 7.43137 8.75144C7.46549 8.73888 7.5018 8.73329 7.53813 8.735C7.54911 8.735 8.59609 8.76052 9.28065 8.35222C8.93105 8.05874 8.50091 7.42258 8.63087 6.10469C8.76083 4.7868 8.56864 3.75327 8.10189 3.28481C7.97996 3.1655 7.83175 3.07619 7.66905 3.02397C7.50636 2.97176 7.33367 2.95809 7.16473 2.98404C7.12043 2.9885 7.07571 2.98202 7.03453 2.96517C6.99334 2.94832 6.95697 2.92162 6.92861 2.88743C6.90665 2.86374 6.36119 2.2531 5.25381 2.67234C4.80171 2.84551 3.77669 3.23559 3.82428 5.63623C3.8554 6.9122 3.64124 7.7999 3.20195 8.25743C3.17132 8.28956 3.13893 8.31999 3.10494 8.34857C3.39231 8.53085 3.94509 8.75688 4.87492 8.7423C4.94774 8.7423 5.01757 8.7711 5.06906 8.82238C5.12055 8.87366 5.14948 8.9432 5.14948 9.01572V9.67193C5.14852 9.78085 5.12042 9.88783 5.06771 9.98327C5.015 10.0787 4.93932 10.1596 4.84747 10.2188L4.80171 10.2461C4.27926 10.4843 3.73733 10.6776 3.18182 10.8239L3.11409 10.844L3.04637 10.864C2.71977 10.9564 2.40238 11.0784 2.09823 11.2286C1.94853 11.2992 1.81947 11.4068 1.72335 11.5411C1.62723 11.6754 1.56725 11.8321 1.54912 11.996V14.4386H5.87248C5.91056 14.4373 5.94851 14.4438 5.9839 14.4579C6.01928 14.472 6.05134 14.4933 6.07803 14.5204C6.10471 14.5474 6.12544 14.5798 6.1389 14.6153C6.15236 14.6508 6.15825 14.6887 6.15619 14.7266Z" fill="#545F7D" stroke="#545F7D"/>
</svg>
