<?xml version="1.0" encoding="UTF-8"?>
<!DOCTYPE svg PUBLIC "-//W3C//DTD SVG 1.1//EN" "http://www.w3.org/Graphics/SVG/1.1/DTD/svg11.dtd">
<!-- Creator: CorelDRAW X7 -->
<svg xmlns="http://www.w3.org/2000/svg" xml:space="preserve" width="8.26771in" height="7.08044in" version="1.1" style="shape-rendering:geometricPrecision; text-rendering:geometricPrecision; image-rendering:optimizeQuality; fill-rule:evenodd; clip-rule:evenodd"
viewBox="0 0 4281 3667"
 xmlns:xlink="http://www.w3.org/1999/xlink">
 <defs>
  <style type="text/css">
   <![CDATA[
    .fil0 {fill:black}
   ]]>
  </style>
 </defs>
 <g id="Layer_x0020_1">
  <metadata id="CorelCorpID_0Corel-Layer"/>
  <g id="_1795922329392">
   <path class="fil0" d="M4281 704l0 2963 -3510 0 0 -615 -771 0 0 -3052 3611 0 0 704 670 0zm-3510 2124l0 -2124 2616 0 0 -480 -3163 0 0 2604 547 0 0 0zm727 -369l-503 615 0 -2146 3063 0 0 1978 -626 -804c-123,-146 -347,-146 -459,0l-626 827 -413 -470c-123,-134 -324,-134 -436,0z"/>
   <path class="fil0" d="M2180 1498c156,0 279,123 279,279 0,146 -123,269 -279,269 -146,0 -268,-123 -268,-269 0,-156 122,-279 268,-279z"/>
  </g>
 </g>
</svg>
