<?xml version="1.0" encoding="UTF-8"?>
<!DOCTYPE svg PUBLIC "-//W3C//DTD SVG 1.1//EN" "http://www.w3.org/Graphics/SVG/1.1/DTD/svg11.dtd">
<!-- Creator: CorelDRAW X7 -->
<svg xmlns="http://www.w3.org/2000/svg" xml:space="preserve" width="6.64559in" height="7.937in" version="1.1" style="shape-rendering:geometricPrecision; text-rendering:geometricPrecision; image-rendering:optimizeQuality; fill-rule:evenodd; clip-rule:evenodd"
viewBox="0 0 6646 7937"
 xmlns:xlink="http://www.w3.org/1999/xlink">
 <defs>
  <style type="text/css">
   <![CDATA[
    .fil0 {fill:#545F7D}
   ]]>
  </style>
 </defs>
 <g id="Layer_x0020_1">
  <metadata id="CorelCorpID_0Corel-Layer"/>
  <g id="_1796016301392">
   <path class="fil0" d="M0 0l0 6619 2627 0 0 -496 -2131 0 0 -5627 2496 0 0 1802 1702 0 0 1527 496 0 0 -1954 -1831 -1871 -3359 0zm3488 842l940 960 -940 0 0 -960z"/>
   <rect class="fil0" x="1005" y="3287" width="2981" height="496"/>
   <rect class="fil0" x="1005" y="4362" width="1492" height="496"/>
   <path class="fil0" d="M6646 7252l0 -2291c0,-673 -1590,-692 -1771,-692 -181,0 -1770,20 -1770,692l0 2306c0,25 4,50 12,74 141,579 1586,596 1758,596 173,0 1737,-20 1770,-672 0,-3 1,-8 1,-13zm-1771 -1332c-720,0 -1172,-148 -1274,-236l0 -213c482,176 1157,183 1274,183 118,0 956,-28 1275,-183l18 272c5,90 -673,143 -1293,177zm-1274 312c482,176 1157,184 1274,184 118,0 793,-9 1275,-184l0 217c-102,87 -554,235 -1275,235 -720,0 -1172,-153 -1274,-235l0 -217zm1274 -1466c621,0 1041,110 1213,196 -172,83 -592,196 -1213,196 -620,0 -1041,-109 -1212,-197 171,-83 592,-195 1212,-195zm-1274 2441l0 -213c482,176 1157,183 1274,183 118,0 793,-8 1275,-183l0 213c-103,88 -554,234 -1275,234 -720,0 -1172,-146 -1274,-234z"/>
  </g>
 </g>
</svg>
