<svg xmlns="http://www.w3.org/2000/svg" viewBox="0 0 128 160" x="0px" y="0px"><title>sack, bag, money, loan, investment, business, dollar</title><g><path d="M97.53,23.93a2.53,2.53,0,0,0-2.96-1.37l-5.9,1.56a2.463,2.463,0,0,0-1.59,1.28,2.63,2.63,0,0,0-.16,1.97,51.6,51.6,0,0,1-8.02-1.04c-.71-.15-1.4-.3-2.07-.44l-.62-.13a8.055,8.055,0,0,0-3.79-6.82,6.238,6.238,0,0,0-5.18-.89,7.548,7.548,0,0,0-13.26,0,6.617,6.617,0,0,0-6.24,1.63,8.159,8.159,0,0,0-2.62,8.38,3.107,3.107,0,0,0-1.34.7,3.622,3.622,0,0,0-1.11,2.75,3.685,3.685,0,0,0,1.39,2.68,5.664,5.664,0,0,0,2.83,1.26,3.658,3.658,0,0,0-.04.67,3.515,3.515,0,0,0,.45,1.64,3.977,3.977,0,0,0-1.24.71,3.143,3.143,0,0,0-1.03,2.46,3.5,3.5,0,0,0,.52,1.78,3.659,3.659,0,0,0-1.08.65,3.137,3.137,0,0,0-1.03,2.45,3.393,3.393,0,0,0,1.24,2.58c-4.31,5.1-8.17,10.93-8.17,18.73,0,11.7,12.1,16.93,24.09,16.93s24.08-5.23,24.08-16.93c0-8.37-4.64-14.53-7.77-18.24a17.991,17.991,0,0,0,3-1.85,21.7,21.7,0,0,1,1.83-1.23,51.716,51.716,0,0,1,8.19-2.93,2.455,2.455,0,0,0,.87,1.3,2.541,2.541,0,0,0,1.55.54,2.074,2.074,0,0,0,.5-.06l6.2-.87a2.334,2.334,0,0,0,1.99-2.16C101.07,37.4,98.83,26.72,97.53,23.93ZM49.19,35.19a2.345,2.345,0,0,1,1.39-.57.59.59,0,0,1,.14-.02h.32a5.74,5.74,0,0,1,.71.04,1.65,1.65,0,0,1,.96,1.53c0,.72-.55,1.16-1.65,1.31-.12.02-.23.03-.35.04a2.7,2.7,0,0,1-.49-.04c-.01,0-.02-.01-.04-.01h-.02a1.407,1.407,0,0,1-1.31-1.42A1.032,1.032,0,0,1,49.19,35.19ZM60.98,59.42c-2.65,0-4.81-1.88-4.81-4.2a4.407,4.407,0,0,1,3.81-4.12V49.29a1,1,0,0,1,2,0V51.1a4.4,4.4,0,0,1,3.82,4.12,1,1,0,0,1-2,0c0-1.22-1.27-2.21-2.82-2.21a2.566,2.566,0,0,0-2.81,2.21c0,1.22,1.26,2.2,2.81,2.2,2.66,0,4.82,1.89,4.82,4.22a4.4,4.4,0,0,1-3.82,4.11v1.82a1,1,0,0,1-2,0V65.75a4.4,4.4,0,0,1-3.81-4.11,1,1,0,0,1,2,0c0,1.21,1.26,2.2,2.81,2.2s2.82-.99,2.82-2.2A2.584,2.584,0,0,0,60.98,59.42ZM45.37,32.67a1.78,1.78,0,0,1-.7-1.19,1.639,1.639,0,0,1,.45-1.23,1.278,1.278,0,0,1,.78-.3,12.237,12.237,0,0,0,2.66,3.25,3.52,3.52,0,0,0-.45.3A3.764,3.764,0,0,1,45.37,32.67Zm2.03,7.28a2.8,2.8,0,0,1,1.84-.54,5.029,5.029,0,0,1,.65.04h.01c.01.01.02,0,.03.01a.84.84,0,0,1,.41.25,1.886,1.886,0,0,1,.54,1.27c.01.65-.44,1.08-1.32,1.26a1.356,1.356,0,0,1-.29.06,3.238,3.238,0,0,1-.88,0,1.431,1.431,0,0,1-1.36-1.43A1.139,1.139,0,0,1,47.4,39.95Zm-1.59,4.89a2.823,2.823,0,0,1,1.84-.55,5.6,5.6,0,0,1,.69.05.5.5,0,0,1,.23.1,1.863,1.863,0,0,1,.73,1.43c0,.72-.55,1.16-1.63,1.32a2.777,2.777,0,0,1-.76.01,1.569,1.569,0,0,1-.43-.09,1.336,1.336,0,0,1-1.04-1.36A1.131,1.131,0,0,1,45.81,44.84Zm34.92-.76a23.481,23.481,0,0,0-1.98,1.32,14.179,14.179,0,0,1-3.21,1.88l-.14-.16c-.24-.28-.48-.55-.71-.82-.19-.23-.44-.48-.71-.77-1.37-1.43-3.52-3.69-3.79-7.21a7.175,7.175,0,0,0,3.74,1.09,1,1,0,0,0,0-2,5.874,5.874,0,0,1-3.97-1.75.265.265,0,0,1-.06-.05c-.56-.5-1.09-1.06-1.6-1.6-1.52-1.62-2.98-3.14-4.99-3a39.6,39.6,0,0,0-5.44,1.05,3.472,3.472,0,0,1-2.51-.21,1.5,1.5,0,0,1-.92-1.17c.02-.43.5-.71.79-.83.94-.42,1.75-.82,2.5-1.18a18.113,18.113,0,0,1,7.29-2.28c2.9-.26,5.94.31,9.93,1.15l.05.01,1.41.3c.68.14,1.37.29,2.09.43.07.02,6.17,1.25,9.07,1.05a64.238,64.238,0,0,1,2.17,11.54A50.477,50.477,0,0,0,80.73,44.08Z"/><path d="M88.716,102.991c-2.151-1.265-6.5-1.669-10.113-1.612a3.7,3.7,0,0,0,.361-1.5,4.05,4.05,0,0,0-3.031-3.96c-.675-.2-1.631-.55-2.738-.958-2.9-1.069-6.868-2.532-10.091-2.8-8.576-.724-12.176.974-17.337,3.8l-.667.365a51.863,51.863,0,0,1-7.233,3.493,2.494,2.494,0,0,0-.783-1.22,2.453,2.453,0,0,0-1.992-.554l-6.114.637a2.314,2.314,0,0,0-2,2.058c-.186,4.1,1.619,14.6,2.789,17.376a2.5,2.5,0,0,0,2.292,1.539,2.434,2.434,0,0,0,.583-.071l5.813-1.311a2.461,2.461,0,0,0,1.612-1.212,2.565,2.565,0,0,0,.3-1.512l.073-.023a30.106,30.106,0,0,1,12.4-1.572c.676.062,1.294.123,1.871.18,4.328.429,6.5.643,13.6-.778,1.03-.208,2.123-.531,3.389-.905a40.847,40.847,0,0,1,14.765-2.108,4.011,4.011,0,0,0,4.249-2.692A4.078,4.078,0,0,0,88.716,102.991Zm.088,4.092a2,2,0,0,1-2.242,1.267,43.258,43.258,0,0,0-15.423,2.188c-1.22.361-2.274.673-3.215.862-6.806,1.362-8.751,1.17-13.012.748-.582-.057-1.2-.119-1.888-.181a32.016,32.016,0,0,0-13.181,1.656c-.032-.115-.068-.217-.1-.334a63.247,63.247,0,0,1-1.725-11.414,49.2,49.2,0,0,0,8.044-3.791l.663-.363c4.98-2.724,8.19-4.229,16.212-3.558,2.954.241,6.775,1.65,9.566,2.68,1.141.42,2.126.783,2.867,1a2.045,2.045,0,0,1,1.594,1.992,1.823,1.823,0,0,1-1.548,1.726h0a4.447,4.447,0,0,1-1.719,0c-.733-.114-1.467-.261-2.2-.409-3.691-.739-7.881-1.578-11.932,1.941a1,1,0,1,0,1.31,1.509c3.31-2.876,6.672-2.2,10.23-1.489.762.153,1.524.305,2.285.424a6.548,6.548,0,0,0,2.334-.007.15.15,0,0,0,.037,0c4.071-.43,9.846-.06,11.94,1.174A2.1,2.1,0,0,1,88.8,107.083Z"/></g><text x="0" y="143" fill="#000000" font-size="5px" font-weight="bold" font-family="'Helvetica Neue', Helvetica, Arial-Unicode, Arial, Sans-serif">Created by Victoruler</text><text x="0" y="148" fill="#000000" font-size="5px" font-weight="bold" font-family="'Helvetica Neue', Helvetica, Arial-Unicode, Arial, Sans-serif">from the Noun Project</text></svg>