<svg width="18" height="20" viewBox="0 0 18 20" fill="none" xmlns="http://www.w3.org/2000/svg">
<path d="M12.5314 2.81941C12.5314 2.81941 11.4697 2.34163 11.4697 3.45786C11.4697 4.57408 12.5216 5.32313 12.5349 5.32075C14.392 6.53299 15.6194 8.62932 15.6194 11.0125C15.6194 14.706 12.6714 17.711 9.00004 17.8028C5.32864 17.711 2.38067 14.706 2.38067 11.0125C2.38067 8.62928 3.6081 6.53302 5.46516 5.32075C5.4785 5.32313 6.53034 4.57404 6.53034 3.45786C6.53034 2.34167 5.46864 2.81941 5.46864 2.81941C2.35169 4.2309 0.183105 7.36815 0.183105 11.0125C0.183105 15.9197 4.11493 19.908 9.00004 20.0004C13.8851 19.908 17.8169 15.9197 17.8169 11.0125C17.8169 7.36815 15.6484 4.2309 12.5314 2.81941Z" fill="#193152"/>
<path d="M9.0618 0C8.07394 0 7.76526 0.723276 7.76526 1.00615V5.43321V9.86026C7.76526 10.1432 8.07398 10.8664 9.0618 10.8664C10.0497 10.8664 10.2349 10.1431 10.2349 9.86026V5.43321V1.00615C10.2349 0.723239 10.0497 0 9.0618 0Z" fill="#193152"/>
</svg>
