<?xml version="1.0" encoding="UTF-8"?>
<!DOCTYPE svg PUBLIC "-//W3C//DTD SVG 1.1//EN" "http://www.w3.org/Graphics/SVG/1.1/DTD/svg11.dtd">
<!-- Creator: CorelDRAW X7 -->
<svg xmlns="http://www.w3.org/2000/svg" xml:space="preserve" width="6.11811in" height="7.27559in" version="1.1" style="shape-rendering:geometricPrecision; text-rendering:geometricPrecision; image-rendering:optimizeQuality; fill-rule:evenodd; clip-rule:evenodd"
viewBox="0 0 4775 5678"
 xmlns:xlink="http://www.w3.org/1999/xlink">
 <defs>
  <style type="text/css">
   <![CDATA[
    .fil0 {fill:#545F7D}
   ]]>
  </style>
 </defs>
 <g id="Layer_x0020_1">
  <metadata id="CorelCorpID_0Corel-Layer"/>
  <g id="_1796013146128">
   <path class="fil0" d="M2388 0c-288,0 -517,257 -517,581 0,95 0,192 0,286 -628,138 -1161,741 -1161,1456 0,280 0,559 0,839 -14,597 -427,1242 -677,1526 -34,37 -43,94 -22,140 20,45 69,77 119,76l1612 0 0 172c0,337 296,602 646,602 349,0 645,-265 645,-602l0 -172 1612 0c50,1 99,-31 119,-76 21,-46 12,-103 -22,-140 -250,-284 -662,-929 -677,-1526 0,-280 0,-559 0,-839 0,-715 -533,-1318 -1161,-1456 0,-94 0,-191 0,-286 0,-324 -229,-581 -516,-581zm0 258c141,0 258,109 258,323l0 258c-172,0 -344,0 -516,0l0 -258c0,-214 116,-323 258,-323l0 0zm-323 839c215,0 430,0 645,0 551,43 1097,589 1097,1226 0,280 0,561 0,841 12,582 312,1125 576,1482 -1330,0 -2661,0 -3991,0 264,-357 564,-900 576,-1482 0,-280 0,-561 0,-841 0,-637 546,-1183 1097,-1226zm310 258c-67,3 -126,68 -123,135 4,68 68,126 136,123l254 0c344,34 649,416 649,968 -1,68 61,131 129,131 68,0 130,-63 129,-131 0,-653 -377,-1182 -893,-1226 -96,0 -197,0 -281,0zm1031 1547c-64,7 -117,67 -115,131l0 129c-1,68 61,131 129,131 68,0 130,-63 129,-131l0 -129c1,-73 -71,-139 -143,-131l0 0zm-1406 2002c259,0 517,0 775,0l0 172c0,186 -165,344 -387,344 -223,0 -388,-158 -388,-344l0 -172z" display="inline"/>
  </g>
 </g>
</svg>
