<svg xmlns="http://www.w3.org/2000/svg" data-name="Слой 1" viewBox="0 0 128 160" x="0px" y="0px"><title>transaction, card,  payment,</title><path d="M126,126a2,2,0,0,1-2-1.67c-3.46-20.94-9.07-53.18-10.32-56.21l-.39-.94c-1.56-3.82-3-7.43-6.07-8.69-4-1.65-18.49-6.53-18.64-6.58a2,2,0,0,1,1.27-3.79c.6.2,14.79,5,18.9,6.68,4.57,1.89,6.52,6.66,8.24,10.87l.38.93c1.83,4.42,9.68,51.71,10.57,57.08a2,2,0,0,1-1.65,2.3Z"/><path d="M97.17,128a2,2,0,0,1-.9-.22A26.15,26.15,0,0,1,88.19,121c-3.25-4.28-4.52-8.59-5.42-13.74a34.64,34.64,0,0,1-.16-7.17c.14-3.14.28-6.38-.63-8.28-.74-1.53-3.75-7.06-7.23-13.45-1.63-3-3.36-6.17-5-9.23-4.87-9-7.34-13.74-8-15.36-1.56-3.78-.91-6.53-.09-8.16a10.19,10.19,0,0,1,5.41-4.67c2.84-1.17,7.2-1.33,11.87,4.56l24.13,30.38-3.13,2.49L75.79,47.94c-2.51-3.16-4.93-4.29-7.21-3.35a6.45,6.45,0,0,0-3.37,2.77,5.73,5.73,0,0,0,.21,4.84c.79,1.92,4.85,9.47,7.83,15,1.65,3.05,3.38,6.23,5,9.22,3.51,6.44,6.53,12,7.32,13.62,1.36,2.8,1.19,6.56,1,10.2a31.53,31.53,0,0,0,.1,6.3c.82,4.71,1.89,8.36,4.66,12a22.4,22.4,0,0,0,6.7,5.69,2,2,0,0,1-.91,3.78Z"/><path d="M83.65,98H83.5c-.61,0-10-2-11.83-5.27-.38-.69-1.14-1.78-1.94-2.92a39.42,39.42,0,0,1-4-6.51,2,2,0,1,1,3.7-1.53A37.88,37.88,0,0,0,73,87.54c.9,1.29,1.68,2.41,2.16,3.28C76,91.94,82.26,93.88,83.8,94a2,2,0,0,1,1.82,2.16A2,2,0,0,1,83.65,98Z"/><path d="M80,107.42c-2.51,0-5.32-.15-6.78-.76-3.12-1.3-11.77-11.85-13.06-13.77a7.15,7.15,0,0,1,1.13-9.4,7.47,7.47,0,0,1,7.84-1.63,2,2,0,1,1-1.53,3.69,3.49,3.49,0,0,0-3.56.83,3.15,3.15,0,0,0-.56,4.28c1.65,2.47,9.5,11.5,11.27,12.3,1.2.5,5.94.55,9.64.31a2,2,0,1,1,.26,4C84,107.31,82.14,107.42,80,107.42Z"/><path d="M66.51,84.67a7.63,7.63,0,0,1-3.91-1.08l-58.8-35A7.71,7.71,0,0,1,1.11,38.06l20.4-34.3A7.72,7.72,0,0,1,32.07,1.08l58.8,35A7.71,7.71,0,0,1,93.55,46.6L87.21,57.28a2,2,0,1,1-3.44-2l6.35-10.68a3.71,3.71,0,0,0-1.29-5.07L30,4.52A3.72,3.72,0,0,0,25,5.8L4.55,40.11a3.71,3.71,0,0,0,1.29,5.07l58.8,35a3.72,3.72,0,0,0,5.07-1.29l3-5a2,2,0,1,1,3.44,2l-3,5a7.65,7.65,0,0,1-4.72,3.52A7.8,7.8,0,0,1,66.51,84.67Z"/><path d="M31.65,37.56a4,4,0,0,1-2-.56h0l-7.34-4.37a4,4,0,0,1-1.39-5.48l3.3-5.55a4,4,0,0,1,5.48-1.39L37,24.57a4,4,0,0,1,1.39,5.48l-3.3,5.55a4,4,0,0,1-2.45,1.83A4,4,0,0,1,31.65,37.56Zm0-4h0L35,28l-7.34-4.37-3.3,5.55,7.34,4.37Z"/><path d="M39.39,56.2a2,2,0,0,1-1-.28l-24-14.28a2,2,0,0,1,2-3.44l24,14.28a2,2,0,0,1-1,3.72Z"/><path d="M51.28,63.27a2,2,0,0,1-1-.28l-7-4.15a2,2,0,1,1,2-3.44l7,4.15a2,2,0,0,1-1,3.72Z"/><text x="0" y="143" fill="#000000" font-size="5px" font-weight="bold" font-family="'Helvetica Neue', Helvetica, Arial-Unicode, Arial, Sans-serif">Created by LAFS</text><text x="0" y="148" fill="#000000" font-size="5px" font-weight="bold" font-family="'Helvetica Neue', Helvetica, Arial-Unicode, Arial, Sans-serif">from the Noun Project</text></svg>