<svg width="611" height="553" viewBox="0 0 611 553" fill="none" xmlns="http://www.w3.org/2000/svg">
<path d="M595.97 330.593L483.634 389.18V370.23L605.47 306.784C610.462 304.146 612.473 297.968 609.838 292.901C607.273 287.903 601.032 285.89 595.97 288.597L483.634 347.184V326.914L605.47 263.399C610.462 260.762 612.473 254.584 609.838 249.516C607.273 244.588 601.032 242.575 595.97 245.212L483.634 303.73V284.64L603.389 222.305C606.857 220.501 608.937 216.96 608.867 213.073C608.867 209.186 606.718 205.715 603.181 203.98L416.649 111.657C413.806 110.2 410.408 110.2 407.565 111.657L5.86258 308.172C2.3261 309.908 0.107134 313.517 0.107134 317.474C0.107134 321.431 2.3261 324.971 5.86258 326.706L206.749 424.374C208.135 425.068 209.661 425.415 211.187 425.415C212.781 425.415 214.446 424.998 215.902 424.235L345.504 356.624V375.713L210.979 445.823L14.7385 350.446C9.74578 348.017 3.57427 350.099 1.14727 355.236C-1.27972 360.373 0.731219 366.481 5.86258 368.911L206.749 466.578C208.135 467.272 209.661 467.619 211.187 467.619C212.781 467.619 214.446 467.203 215.902 466.439L345.504 398.829V419.029L210.979 489.138L14.7385 393.761C9.74578 391.262 3.57427 393.414 1.14727 398.62C-1.34907 403.618 0.731219 409.866 5.86258 412.295L206.749 509.893C208.135 510.588 209.661 511.004 211.187 511.004C212.781 511.004 214.446 510.587 215.902 509.754L345.504 442.213V461.025L210.979 531.134L14.7385 435.827C9.74578 433.328 3.57427 435.48 1.14727 440.617C-1.34907 445.684 0.731219 451.862 5.86258 454.292L206.749 551.89C208.135 552.653 209.661 553 211.187 553C212.781 553 214.446 552.584 215.902 551.751L360.551 476.505L605.47 348.85C610.462 346.281 612.473 340.034 609.838 335.036C607.273 329.969 601.032 327.956 595.97 330.593ZM355.697 328.233L184.282 243.755L281.569 196.136L450.003 279.087L355.697 328.233ZM412.003 132.343L575.93 213.42L472.54 267.287L304.938 184.682L412.003 132.343ZM211.048 403.618L33.8077 317.404L160.982 255.208L333.022 339.964L211.048 403.618ZM391.616 332.606C391.686 332.537 391.825 332.537 391.894 332.468L463.109 295.4V399.801L366.098 450.404V346.004L391.616 332.606Z" fill="black"/>
<path d="M183.664 137.545C266.459 137.545 329.006 107.974 329.006 68.8238C329.006 29.6735 266.528 0.102539 183.664 0.102539C100.799 0.102539 38.252 29.6735 38.252 68.8238C38.252 107.974 100.799 137.545 183.664 137.545ZM183.664 20.6495C257.236 20.6495 308.481 46.0555 308.481 68.8238C308.481 91.592 257.236 116.998 183.664 116.998C110.091 116.998 58.8468 91.592 58.8468 68.8238C58.8468 46.0555 110.091 20.6495 183.664 20.6495Z" fill="black"/>
<path d="M326.489 128.647C328.847 123.441 326.489 117.332 321.358 115.042C316.157 112.751 310.124 115.042 307.767 120.248C300.694 135.936 251.252 152.942 183.643 152.942C116.034 152.942 66.5925 135.936 59.4502 120.178C57.0925 115.042 51.0597 112.681 45.859 115.042C40.7276 117.402 38.37 123.51 40.7276 128.647C54.6655 159.467 124.563 173.559 183.643 173.559C242.723 173.559 312.69 159.467 326.489 128.647Z" fill="black"/>
<path d="M193.906 202.094C193.906 196.402 189.329 191.821 183.712 191.821C116.103 191.821 66.6618 174.814 59.5195 158.987C57.0925 153.92 51.0597 151.56 45.859 153.92C40.7276 156.28 38.37 162.319 40.7276 167.525C54.6655 198.346 124.563 212.437 183.643 212.437C189.329 212.437 193.906 207.786 193.906 202.094Z" fill="black"/>
<path d="M119.801 241.475C124.794 241.475 129.163 237.865 129.925 232.729C130.827 227.175 126.944 221.9 121.327 221.067C78.2651 214.611 61.7615 203.644 59.1265 198.854C56.3528 193.856 50.1813 192.051 45.1886 194.758C40.1959 197.466 38.393 203.713 41.0974 208.711C51.4988 227.661 88.8052 236.963 118.276 241.406C118.831 241.475 119.316 241.475 119.801 241.475Z" fill="black"/>
<path d="M58.5567 235.915C55.2976 231.264 48.9181 230.084 44.2721 233.346C39.6261 236.609 38.4473 242.926 41.6371 247.646C47.3232 255.837 60.429 262.362 81.7172 267.499C82.5493 267.707 83.3121 267.776 84.1442 267.776C88.7902 267.776 92.9507 264.653 94.1296 259.932C95.4471 254.379 92.0493 248.826 86.5712 247.507C62.7866 241.746 58.6954 236.192 58.5567 235.915Z" fill="black"/>
<path d="M323.935 277.128C347.53 267.332 363.613 252.041 359.857 242.976C356.101 233.911 333.929 234.503 310.333 244.299C286.738 254.095 270.656 269.386 274.412 278.451C278.167 287.517 300.34 286.924 323.935 277.128Z" fill="black"/>
</svg>
