<svg xmlns="http://www.w3.org/2000/svg" xmlns:xlink="http://www.w3.org/1999/xlink" version="1.1" x="0px" y="0px" viewBox="0 0 66 82.5" style="enable-background:new 0 0 66 66;" xml:space="preserve"><g><g><path d="M65,63.7c0,0.6-0.4,1-1,1h-5.1c0.9-0.6,1.8-1.2,2.5-2H64C64.6,62.7,65,63.2,65,63.7z"/><path d="M57,27.8v13.1c-1.6-0.7-3.4-1-5.2-1c-1.8,0-3.5,0.4-5.2,1V27.8c0-0.5,0.4-1,1-1H56C56.5,26.8,57,27.3,57,27.8z"/></g><path d="M52.1,12.5l-1-4.4c-0.1-0.3-0.2-0.5-0.5-0.6c-0.2-0.1-0.5-0.2-0.8-0.1l-4.3,1.1c-0.5,0.1-0.9,0.7-0.7,1.2   c0.1,0.5,0.7,0.8,1.2,0.7l1.8-0.5c-9.1,14.4-21,22.6-35.4,24.2c-0.5,0.1-0.9,0.5-0.9,1.1c0.1,0.6,0.6,1,1.1,0.9   c15.1-1.7,27.5-10.2,36.9-25.2l0.5,2c0.1,0.5,0.7,0.9,1.2,0.8C51.9,13.5,52.2,13,52.1,12.5z"/><g><path d="M51.3,49v2.6C49.9,50.9,50.1,49.4,51.3,49z"/><path d="M52.4,57v-2.9C54.3,54.6,53.8,56.7,52.4,57z"/><path d="M40.4,53.3c0,6.3,5.1,11.4,11.4,11.4c6.3,0,11.4-5.1,11.4-11.4C63.3,38.2,40.4,38.2,40.4,53.3z M54.7,57.5    c-0.5,0.6-1.3,1-2.3,1.1v1.4h-1.1v-1.4c-1.9-0.2-2.9-1.4-3.2-3.3l2-0.2c0.2,0.8,0.7,1.4,1.2,1.7v-3.2c-1.7-0.5-2.9-1.5-2.9-3.4    c0-1.7,1.2-2.9,2.9-3v-0.8h1.1v0.8c1.6,0.2,2.6,1.1,2.8,2.6l-1.9,0.3c-0.1-0.6-0.4-1-0.9-1.2v2.9c1.9,0.5,3.1,1.3,3.1,3.3    C55.5,56.1,55.2,56.9,54.7,57.5z"/></g><path d="M42.3,62.7c0.7,0.8,1.6,1.4,2.5,2H2c-0.5,0-1-0.4-1-1V2.3c0-0.5,0.5-1,1-1c0.6,0,1,0.5,1,1v60.5h5.1V48.3c0-0.6,0.4-1,1-1   h8.3c0.5,0,1,0.4,1,1v14.4h9.5V36.9c0-0.6,0.5-1,1-1h8.3c0.5,0,1,0.4,1,1v25.8H42.3z"/></g><text x="0" y="81" fill="#000000" font-size="5px" font-weight="bold" font-family="'Helvetica Neue', Helvetica, Arial-Unicode, Arial, Sans-serif">Created by ProSymbols</text><text x="0" y="86" fill="#000000" font-size="5px" font-weight="bold" font-family="'Helvetica Neue', Helvetica, Arial-Unicode, Arial, Sans-serif">from the Noun Project</text></svg>