<svg xmlns="http://www.w3.org/2000/svg" xmlns:xlink="http://www.w3.org/1999/xlink" version="1.1" x="0px" y="0px" viewBox="0 0 26 32.5" enable-background="new 0 0 26 26" xml:space="preserve"><g><path d="M2,6h16v2c0,0.5503,0.45,1,1,1h2c0.55,0,1-0.4497,1-1V6h2c0.55,0,1-0.4497,1-1c0-0.5498-0.45-1-1-1h-2V2   c0-0.5498-0.45-1-1-1h-2c-0.55,0-1,0.4502-1,1v2H2C1.45,4,1,4.4502,1,5C1,5.5503,1.45,6,2,6z"/><path d="M2,14h4v2c0,0.5503,0.45,1,1,1h2c0.55,0,1-0.4497,1-1v-2h14c0.55,0,1-0.4497,1-1c0-0.5498-0.45-1-1-1H10v-2   c0-0.5498-0.45-1-1-1H7c-0.55,0-1,0.4502-1,1v2H2c-0.55,0-1,0.4502-1,1C1,13.5503,1.45,14,2,14z"/><path d="M2,22h11v2c0,0.5503,0.45,1,1,1h2c0.55,0,1-0.4497,1-1v-2h7c0.55,0,1-0.4497,1-1c0-0.5498-0.45-1-1-1h-7v-2   c0-0.5498-0.45-1-1-1h-2c-0.55,0-1,0.4502-1,1v2H2c-0.55,0-1,0.4502-1,1C1,21.5503,1.45,22,2,22z"/></g><text x="0" y="41" fill="#000000" font-size="5px" font-weight="bold" font-family="'Helvetica Neue', Helvetica, Arial-Unicode, Arial, Sans-serif">Created by Vectors Point</text><text x="0" y="46" fill="#000000" font-size="5px" font-weight="bold" font-family="'Helvetica Neue', Helvetica, Arial-Unicode, Arial, Sans-serif">from the Noun Project</text></svg>