<svg xmlns="http://www.w3.org/2000/svg" xmlns:xlink="http://www.w3.org/1999/xlink" version="1.1" x="0px" y="0px" viewBox="0 0 100 125" style="enable-background:new 0 0 100 100;" xml:space="preserve"><g><path d="M49.722435,35.8344116c4.9668579,0,9.0079346-4.039856,9.0079346-9.0067139s-4.0410767-9.0067139-9.0079346-9.0067139   c-4.9662476,0-9.0067139,4.039856-9.0067139,9.0067139S44.7561874,35.8344116,49.722435,35.8344116z"/><path d="M27.670496,61.0379028c4.966856,0,9.0073223-4.0410767,9.0073223-9.0079956   c0-4.9668579-4.0404663-9.0066528-9.0073223-9.0066528c-4.9669189,0-9.0073242,4.0397949-9.0073242,9.0066528   C18.6631718,56.9968262,22.703577,61.0379028,27.670496,61.0379028z"/><path d="M72.3286362,61.0379028c4.9668579,0,9.0079346-4.0410767,9.0079346-9.0079956   c0-4.9668579-4.0410767-9.0066528-9.0079346-9.0066528c-4.9669189,0-9.0067139,4.0397949-9.0067139,9.0066528   C63.3219223,56.9968262,67.3617172,61.0379028,72.3286362,61.0379028z"/><path d="M95.7181625,79.7417603c-1.4744873-7.8983154-6.8920898-14.6237793-14.4657593-17.6882324   c-0.3765259-0.1523438-0.8018799-0.0727539-1.1241455,0.1744995c-2.1644897,1.6608276-4.8667603,2.6532593-7.7996216,2.6532593   c-2.9309692,0-5.6317139-0.9915161-7.7955322-2.6508179c-0.3234863-0.2480469-0.7503052-0.328186-1.1280518-0.1749268   c-4.571167,1.8544312-8.5133057,5.1188354-11.1741333,9.3076782c-0.0091553,0.0144653-0.022522,0.024231-0.0319824,0.0383301   c1.447937,2.7945557,2.4276123,5.8467407,2.8546753,9.0431519c0.1332397,0.9976196,0.9963379,1.734314,2.0028076,1.734314   h36.6681519C95.0091171,82.1790161,95.9538803,81.0044556,95.7181625,79.7417603z"/><path d="M36.593956,62.0532227c-0.3765259-0.1522827-0.8018188-0.0726929-1.1240845,0.1745605   c-2.1644897,1.6608887-4.8665752,2.6535034-7.7993755,2.6535034c-2.9331055,0-5.635498-0.9927979-7.8000488-2.6540527   c-0.3223877-0.2473755-0.7478638-0.3269653-1.1245117-0.1744995c-7.5722046,3.0658569-12.9889526,9.7929077-14.4640503,17.6888428   c-0.2359009,1.2627563,0.7089233,2.437439,1.9935303,2.437439h42.7904053c1.2845459,0,2.2293091-1.1745605,1.9935913-2.4372559   C49.5849838,71.8432007,44.1676865,65.1167603,36.593956,62.0532227z"/><path d="M61.3864365,58.7337646c-1.2019043-1.9547119-1.9078979-4.2456665-1.9078979-6.7038574   c0-4.2636108,2.0946045-8.0393066,5.3024292-10.3768311c0.3717651-0.270874,0.4180908-0.8173828,0.0629883-1.1098022   c-1.8504639-1.5239868-3.9247437-2.7663574-6.133728-3.6704102c-0.4140625-0.1694946-0.882019-0.0807495-1.2383423,0.1898804   c-2.1560669,1.6377563-4.8391724,2.6150513-7.7494507,2.6150513c-2.9102173,0-5.5931396-0.977417-7.7490234-2.6152344   c-0.355835-0.2702637-0.822998-0.3588257-1.2366333-0.1898193c-2.1121216,0.862915-4.097168,2.0303345-5.8825073,3.4598999   c-0.3640137,0.2914429-0.3123169,0.8482056,0.0720215,1.1122437c3.3731079,2.3172607,5.5949097,6.1928711,5.5949097,10.585022   c0,2.4556885-0.7047119,4.7445068-1.9044189,6.697937c4.0455933,1.744873,7.5331421,4.3999634,10.2600098,7.6724854   c0.5881348,0.7058716,1.6619263,0.7075806,2.2514648,0.0028687C53.9003525,63.0892944,57.4229355,60.4487915,61.3864365,58.7337646   z"/></g><text x="0" y="115" fill="#000000" font-size="5px" font-weight="bold" font-family="'Helvetica Neue', Helvetica, Arial-Unicode, Arial, Sans-serif">Created by Dmitry Vasiliev</text><text x="0" y="120" fill="#000000" font-size="5px" font-weight="bold" font-family="'Helvetica Neue', Helvetica, Arial-Unicode, Arial, Sans-serif">from the Noun Project</text></svg>