<?xml version="1.0" encoding="UTF-8"?>
<!DOCTYPE svg PUBLIC "-//W3C//DTD SVG 1.1//EN" "http://www.w3.org/Graphics/SVG/1.1/DTD/svg11.dtd">
<!-- Creator: CorelDRAW X7 -->
<svg xmlns="http://www.w3.org/2000/svg" xml:space="preserve" width="7.63174in" height="7.63174in" version="1.1" style="shape-rendering:geometricPrecision; text-rendering:geometricPrecision; image-rendering:optimizeQuality; fill-rule:evenodd; clip-rule:evenodd"
viewBox="0 0 7632 7632"
 xmlns:xlink="http://www.w3.org/1999/xlink">
 <defs>
  <style type="text/css">
   <![CDATA[
    .fil0 {fill:#545F7D}
   ]]>
  </style>
 </defs>
 <g id="Layer_x0020_1">
  <metadata id="CorelCorpID_0Corel-Layer"/>
  <g id="_1795922376528">
   <path class="fil0" d="M318 1590l5088 0 0 636c0,175 143,318 318,318l636 0c175,0 318,-143 318,-318l0 -636 636 0c175,0 318,-143 318,-318 0,-175 -143,-318 -318,-318l-636 0 0 -636c0,-175 -143,-318 -318,-318l-636 0c-175,0 -318,143 -318,318l0 636 -5088 0c-175,0 -318,143 -318,318 0,175 143,318 318,318z"/>
   <path class="fil0" d="M318 4134l1272 0 0 636c0,175 143,318 318,318l636 0c175,0 318,-143 318,-318l0 -636 4452 0c175,0 318,-143 318,-318 0,-175 -143,-318 -318,-318l-4452 0 0 -636c0,-175 -143,-318 -318,-318l-636 0c-175,0 -318,143 -318,318l0 636 -1272 0c-175,0 -318,143 -318,318 0,175 143,318 318,318z"/>
   <path class="fil0" d="M318 6678l3498 0 0 636c0,175 143,318 318,318l636 0c175,0 318,-143 318,-318l0 -636 2226 0c175,0 318,-143 318,-318 0,-175 -143,-318 -318,-318l-2226 0 0 -636c0,-175 -143,-318 -318,-318l-636 0c-175,0 -318,143 -318,318l0 636 -3498 0c-175,0 -318,143 -318,318 0,175 143,318 318,318z"/>
  </g>
 </g>
</svg>
