<?xml version="1.0" encoding="UTF-8"?>
<!DOCTYPE svg PUBLIC "-//W3C//DTD SVG 1.1//EN" "http://www.w3.org/Graphics/SVG/1.1/DTD/svg11.dtd">
<!-- Creator: CorelDRAW X7 -->
<svg xmlns="http://www.w3.org/2000/svg" xml:space="preserve" width="6.88977in" height="6.88976in" version="1.1" style="shape-rendering:geometricPrecision; text-rendering:geometricPrecision; image-rendering:optimizeQuality; fill-rule:evenodd; clip-rule:evenodd"
viewBox="0 0 1877 1877"
 xmlns:xlink="http://www.w3.org/1999/xlink">
 <defs>
  <style type="text/css">
   <![CDATA[
    .fil0 {fill:#545F7D;fill-rule:nonzero}
   ]]>
  </style>
 </defs>
 <g id="Layer_x0020_1">
  <metadata id="CorelCorpID_0Corel-Layer"/>
  <g id="_1796013157936">
   <path class="fil0" d="M939 0c-518,0 -939,421 -939,939 0,518 421,938 939,938 518,0 938,-420 938,-938 0,-518 -420,-939 -938,-939zm0 94c467,0 844,378 844,845 0,236 -97,450 -253,603 -55,-219 -228,-391 -447,-445 135,-56 231,-190 231,-346 0,-207 -168,-376 -375,-376 -207,0 -376,169 -376,376 0,156 96,290 231,346 -219,54 -392,226 -447,445 -156,-153 -253,-367 -253,-603 0,-467 378,-845 845,-845zm0 369c159,0 288,128 288,288 0,160 -129,288 -288,288 -160,0 -289,-128 -289,-288 0,-160 129,-288 289,-288zm0 710c259,0 471,191 509,439 -142,107 -318,171 -509,171 -192,0 -368,-64 -509,-171 38,-248 250,-439 509,-439z"/>
  </g>
 </g>
</svg>
