<?xml version="1.0" encoding="UTF-8"?>
<!DOCTYPE svg PUBLIC "-//W3C//DTD SVG 1.1//EN" "http://www.w3.org/Graphics/SVG/1.1/DTD/svg11.dtd">
<!-- Creator: CorelDRAW X7 -->
<svg xmlns="http://www.w3.org/2000/svg" xml:space="preserve" width="7.54842in" height="5.91968in" version="1.1" style="shape-rendering:geometricPrecision; text-rendering:geometricPrecision; image-rendering:optimizeQuality; fill-rule:evenodd; clip-rule:evenodd"
viewBox="0 0 1852 1452"
 xmlns:xlink="http://www.w3.org/1999/xlink">
 <defs>
  <style type="text/css">
   <![CDATA[
    .fil0 {fill:#545F7D}
   ]]>
  </style>
 </defs>
 <g id="Layer_x0020_1">
  <metadata id="CorelCorpID_0Corel-Layer"/>
  <path class="fil0" d="M126 1414c67,24 158,38 251,38 93,0 185,-14 252,-38 103,-39 125,-92 125,-128l0 -2 0 -158 0 -2 0 0c0,0 0,-3 0,-3l0 -160 0 0c0,0 0,-2 0,-2l0 -160c0,-36 -22,-89 -125,-128 -67,-24 -159,-38 -252,-38 -93,0 -184,14 -251,38 -104,39 -126,92 -126,128 0,0 0,2 0,2l0 158c0,0 0,2 0,2l0 0c0,0 0,2 0,2l0 158c0,0 0,3 0,3l0 0c0,0 0,2 0,2l0 158 0 0 0 2c0,38 22,89 126,128zm-43 -615c0,-6 14,-28 71,-49 59,-22 138,-34 223,-34 85,0 164,12 223,34 59,23 71,43 71,49 0,6 -12,28 -71,49 -59,22 -138,34 -223,34 -85,0 -164,-12 -223,-34 -57,-21 -71,-41 -71,-49l0 0zm0 110c12,6 27,12 43,18 67,24 158,38 251,38 93,0 185,-14 252,-38 16,-6 30,-12 42,-18l0 52c0,6 -12,29 -71,49 -59,22 -138,34 -223,34 -85,0 -164,-12 -223,-34 -57,-20 -71,-43 -71,-49l0 0 0 0c0,0 0,0 0,0l0 -52zm0 162c12,6 27,12 43,18 67,24 158,39 251,39 93,0 185,-15 252,-39 16,-6 30,-12 42,-18l0 53c0,6 -12,28 -71,48 -59,22 -138,35 -223,35 -85,0 -164,-13 -223,-35 -57,-20 -71,-42 -71,-48l0 0 0 0 0 0 0 -53zm0 162c12,6 27,12 43,18 67,25 158,39 251,39 93,0 185,-14 252,-39 16,-6 30,-12 42,-18l0 53c0,6 -12,28 -71,48 -59,23 -138,35 -223,35 -85,0 -164,-12 -223,-35 -59,-22 -71,-42 -71,-48l0 -53zm1324 -251c0,0 0,0 0,0l0 0 0 0c0,-2 0,-4 0,-7l15 -204c0,0 0,-2 0,-2l0 0 0 0c2,-17 16,-31 34,-31 18,0 33,14 35,31l0 0 12 186c0,6 2,10 6,14l83 100c0,0 0,0 2,2l0 0 0 0c10,14 8,32 -4,44 -12,13 -32,13 -47,2l0 0 -115 -97c-2,-2 -4,-4 -6,-6 -11,-6 -15,-18 -15,-32 0,2 0,2 0,0zm-419 -88c-4,27 -6,55 -6,81 0,3 0,3 0,5 -27,2 -55,4 -84,4 -20,0 -40,0 -60,-2l0 -21c0,0 0,0 0,0 0,0 0,0 0,-2l0 -63c20,2 40,2 60,2 31,0 61,-2 90,-4zm-469 -401l0 67c51,8 98,18 138,34 41,14 71,33 95,51 45,8 94,12 144,12 92,0 177,-12 244,-36 38,-35 85,-65 134,-86l0 -42 0 -2 0 0c0,0 0,-2 0,-2l0 -160 0 0c0,0 0,-2 0,-2l0 -161c0,-36 -23,-89 -126,-127 -67,-25 -158,-39 -252,-39 -93,0 -184,14 -251,39 -104,38 -126,89 -126,127 0,0 0,2 0,2l0 159c0,0 0,2 0,2l0 0c0,0 0,2 0,2l0 158c0,0 0,2 0,2l0 0c0,0 0,2 0,2zm83 -329c0,-6 15,-28 71,-48 59,-23 138,-35 223,-35 86,0 165,12 223,35 59,22 71,42 71,48 0,6 -12,29 -71,49 -58,22 -137,34 -223,34 -85,0 -164,-12 -223,-34 -54,-18 -69,-41 -71,-49l0 0zm0 110c12,6 27,12 43,18 67,24 158,39 251,39 94,0 185,-15 252,-39 16,-6 30,-12 42,-18l0 53c0,6 -12,28 -71,48 -58,22 -137,35 -223,35 -85,0 -164,-13 -223,-35 -56,-20 -71,-42 -71,-48l0 0 0 0c0,0 0,0 0,0l0 -53zm0 162c12,6 27,12 43,18 67,25 158,39 251,39 94,0 185,-14 252,-39 16,-6 30,-12 42,-18l0 53c0,6 -12,28 -71,48 -58,23 -137,35 -223,35 -85,0 -164,-12 -223,-35 -56,-20 -71,-42 -71,-48l0 0 0 0 0 0 0 -53zm236 690l0 0c0,-2 0,-2 0,-2 0,0 0,0 0,-3l0 -62c20,2 40,2 60,2 31,0 61,-2 92,-4 4,28 12,54 22,81 -37,4 -73,6 -112,6 -20,0 -40,0 -60,-2l0 -16 -2 0zm219 -408c-21,30 -35,63 -47,95 -37,4 -73,6 -112,6 -20,0 -40,0 -60,-2l0 -20c0,-18 -2,-43 -15,-69 25,2 49,4 75,4 55,2 110,-4 159,-14zm8 257c0,217 176,394 393,394 217,0 394,-177 394,-394 0,-217 -177,-393 -394,-393 -217,0 -393,176 -393,393zm391 -302c166,0 302,136 302,302 0,167 -136,303 -302,303 -166,0 -302,-136 -302,-303 0,-166 136,-302 302,-302z"/>
 </g>
</svg>
