<?xml version="1.0" encoding="UTF-8"?>
<!DOCTYPE svg PUBLIC "-//W3C//DTD SVG 1.1//EN" "http://www.w3.org/Graphics/SVG/1.1/DTD/svg11.dtd">
<!-- Creator: CorelDRAW X7 -->
<svg xmlns="http://www.w3.org/2000/svg" xml:space="preserve" width="7.45748in" height="4.96476in" version="1.1" style="shape-rendering:geometricPrecision; text-rendering:geometricPrecision; image-rendering:optimizeQuality; fill-rule:evenodd; clip-rule:evenodd"
viewBox="0 0 1715 1142"
 xmlns:xlink="http://www.w3.org/1999/xlink">
 <defs>
  <style type="text/css">
   <![CDATA[
    .fil0 {fill:#545F7D}
   ]]>
  </style>
 </defs>
 <g id="Layer_x0020_1">
  <metadata id="CorelCorpID_0Corel-Layer"/>
  <g id="_1795757439648">
   <path class="fil0" d="M418 1c-234,0 -418,93 -418,213l0 715c0,120 184,213 418,213 234,0 419,-93 419,-213l0 -715c-2,-120 -185,-213 -419,-213zm354 473c4,10 8,19 8,29 0,93 -192,158 -362,158 -169,0 -361,-65 -361,-158 0,-10 2,-19 8,-29 72,61 201,99 353,99 153,0 282,-40 354,-99zm-717 170c0,-10 2,-19 8,-29 72,61 201,99 353,99 153,0 282,-38 354,-99 4,10 8,19 8,29 0,93 -192,158 -362,158 -169,0 -361,-63 -361,-158zm717 -316c6,11 8,21 8,30 0,94 -192,158 -362,158 -169,0 -361,-64 -361,-156 0,-9 2,-21 8,-30 72,61 201,99 353,99 151,0 280,-40 354,-101zm-709 430c72,61 203,101 355,101 153,0 282,-38 354,-99 4,9 8,19 8,28 0,93 -192,158 -362,158 -169,0 -361,-63 -361,-156 -2,-11 2,-21 6,-32zm355 -702c172,0 362,65 362,158 0,93 -192,158 -362,158 -169,0 -361,-65 -361,-158 0,-93 190,-158 361,-158zm0 1035c-171,0 -361,-65 -361,-158l0 -34c72,64 205,104 361,104 156,0 289,-42 362,-104l0 34c0,91 -192,158 -362,158z"/>
   <path class="fil0" d="M1322 286l0 -217 180 120c6,4 10,6 16,6 9,0 19,-4 22,-13 10,-14 6,-31 -7,-38l-194 -130c-29,-19 -61,-19 -90,0l-194 130c-13,9 -17,26 -7,38 9,13 26,17 38,7l181 -120 0 432c0,15 13,29 28,29 15,0 29,-14 29,-29l0 -158c159,6 330,69 330,156 0,93 -192,158 -361,158 -169,0 -361,-65 -361,-158 0,-53 70,-106 179,-137 15,-4 24,-19 21,-32 -4,-13 -19,-25 -35,-21 -137,36 -218,108 -218,190l0 430c0,120 184,213 418,213 234,0 418,-93 418,-213l0 -430c-3,-114 -173,-205 -393,-213zm-390 502c0,-9 2,-19 7,-28 73,61 202,99 354,99 152,0 282,-38 354,-99 4,9 7,19 7,28 0,93 -192,158 -361,158 -169,0 -361,-65 -361,-158zm361 -74c150,0 280,-38 354,-99 6,12 7,21 7,31 0,93 -192,157 -361,157 -169,0 -361,-64 -361,-157 0,-10 2,-19 7,-31 73,61 202,99 354,99zm0 377c-171,0 -361,-65 -361,-158 0,-10 2,-19 7,-29 73,61 202,99 354,99 152,0 282,-38 354,-99 4,10 7,19 7,29 2,91 -190,158 -361,158z"/>
  </g>
 </g>
</svg>
