<svg width="20" height="21" viewBox="0 0 20 21" fill="none" xmlns="http://www.w3.org/2000/svg">
<path d="M8.2018 20.0184C8.12796 20.0184 8.02952 19.9938 7.95568 19.9692L4.41165 18.4925C4.14093 18.3694 3.96865 18.0741 4.04248 17.7788L4.21476 17.065C4.33782 16.5236 4.46088 15.9575 4.58393 15.4161C4.16554 15.5145 3.74715 15.613 3.35337 15.7114L2.3443 15.9575C1.95052 16.056 1.63057 15.8837 1.4829 15.5145C1.11373 14.6039 0.719953 13.6933 0.350783 12.7827L0.080059 12.1428C0.080059 12.1181 0.0554475 12.0443 0.0308361 12.0197C-0.0429979 11.749 0.0554475 11.4536 0.301561 11.306L1.33524 10.6661C1.6798 10.4446 2.02435 10.2477 2.36891 10.0262C1.82746 9.68163 1.28601 9.33707 0.719953 9.01712L0.326172 8.77101C0.080059 8.62334 -0.0676092 8.27878 0.0308361 8.00806L0.080059 7.86039L0.350783 7.19588C0.719953 6.30987 1.08912 5.44848 1.43368 4.56247C1.58135 4.16869 1.95052 3.99641 2.3443 4.09485C2.81192 4.21791 3.30414 4.31636 3.77176 4.4148L4.58393 4.58708L4.41165 3.82413C4.31321 3.35651 4.19015 2.86429 4.06709 2.39667C3.96865 1.97828 4.14093 1.63372 4.53471 1.46144C5.3715 1.11688 6.20828 0.772324 7.04507 0.427766L7.90646 0.083207C8.17719 -0.0152383 8.54636 0.0585958 8.71864 0.304709L9.03858 0.821547C9.35853 1.33838 9.67848 1.85522 9.99843 2.37206C10.2938 1.90445 10.5645 1.43683 10.8598 0.969215L11.2782 0.304709C11.4505 0.0585958 11.7951 -0.0644609 12.0658 0.0339844L14.5023 1.04305C14.8222 1.16611 15.1422 1.31377 15.4621 1.43683C15.8559 1.5845 16.0282 1.95367 15.9298 2.34745C15.8067 2.81506 15.7083 3.30729 15.5852 3.79952L15.4129 4.58708L17.6772 4.07024C18.0463 3.9718 18.3909 4.16869 18.5386 4.51325L19.9414 7.90961C19.9414 7.93422 19.966 7.98344 19.966 8.00806C20.0399 8.27878 19.9414 8.57412 19.7199 8.72178L19.0308 9.14018C18.5632 9.43551 18.0956 9.73085 17.6279 10.0016C18.0956 10.2969 18.5632 10.5922 19.0554 10.863L19.6953 11.2814C19.9414 11.4536 20.0645 11.7736 19.966 12.0689L19.2031 13.8902C18.9816 14.407 18.7601 14.9485 18.5386 15.4653C18.3663 15.8591 18.0217 16.0313 17.6279 15.9329C17.1603 15.8098 16.6681 15.7114 16.2005 15.613L15.4621 15.4161C15.6344 16.1544 15.8067 16.9174 15.979 17.6557C16.102 18.1233 15.8313 18.4186 15.5606 18.5417C14.6746 18.9109 13.8132 19.2554 12.9272 19.6246L12.1396 19.9446C12.0904 19.9692 12.0166 19.9938 11.9673 19.9938C11.7212 20.0184 11.4505 19.9199 11.3274 19.723L11.0075 19.2062C10.6875 18.6894 10.3676 18.1725 10.0476 17.6557C9.75231 18.1233 9.45698 18.6155 9.16164 19.0832L8.76786 19.723C8.62019 19.9199 8.4233 20.0184 8.2018 20.0184ZM10.2445 16.3759C10.5399 16.3759 10.8106 16.5236 10.9583 16.7943C11.3274 17.385 11.672 17.951 12.0412 18.5417L12.0904 18.6155L12.4103 18.4679C13.1487 18.1479 13.887 17.8526 14.65 17.5326C14.4777 16.8189 14.33 16.1052 14.1577 15.3915C14.1085 15.1453 14.1824 14.8746 14.33 14.7023C14.4039 14.6285 14.4531 14.5547 14.5269 14.5054C14.5761 14.4562 14.6007 14.4316 14.65 14.3824C14.773 14.2593 15.0437 14.0378 15.4621 14.1363L16.5204 14.3824C16.865 14.4562 17.2342 14.5547 17.5787 14.6285C17.751 14.2101 17.9233 13.8163 18.0956 13.3979L18.637 12.0689L18.4155 11.9459C17.9233 11.6259 17.431 11.3306 16.9142 11.0106C16.4466 10.7399 16.422 10.2969 16.3974 10.1246C16.3974 10.0508 16.3974 9.97696 16.3974 9.90313C16.3728 9.53396 16.5204 9.23862 16.8158 9.06634C17.3572 8.7464 17.8741 8.40184 18.4155 8.08189L18.637 7.93422L17.5787 5.37464L15.4621 5.86687C15.0437 5.96532 14.773 5.74381 14.6746 5.62076C14.5761 5.52231 14.5023 5.42387 14.4039 5.35003C14.1824 5.15314 14.1085 4.88242 14.1824 4.58708L14.4285 3.52879C14.5023 3.18424 14.6007 2.81506 14.6746 2.47051C14.4777 2.39667 14.2562 2.29823 14.0593 2.22439L12.115 1.41222L11.9673 1.63372C11.6474 2.12595 11.352 2.61817 11.0567 3.1104C10.9337 3.30729 10.6875 3.57802 10.1707 3.62724C10.0969 3.62724 10.0476 3.62724 9.97381 3.62724C9.58003 3.67646 9.2847 3.52879 9.11242 3.20885C8.74325 2.61817 8.37408 2.0275 8.02952 1.43683L7.9803 1.363L7.5619 1.53528C6.84818 1.83061 6.10984 2.12595 5.39611 2.42128C5.46994 2.79045 5.56839 3.13501 5.64222 3.50418L5.88833 4.53786C5.96217 4.83319 5.86372 5.12853 5.64222 5.32542C5.54377 5.39925 5.46994 5.4977 5.39611 5.57153C5.27305 5.69459 5.02694 5.91609 4.60854 5.81765L3.55026 5.57153C3.2057 5.4977 2.83653 5.39925 2.49197 5.32542C2.17202 6.08837 1.85207 6.85132 1.55674 7.58966L1.40907 7.90961C2.02435 8.27878 2.63964 8.67256 3.25492 9.04173C3.52565 9.21401 3.67331 9.48474 3.6487 9.80468C3.6487 9.92774 3.6487 10.0262 3.6487 10.1492C3.67331 10.4692 3.52565 10.7399 3.25492 10.9122C2.83653 11.1583 2.41814 11.429 1.99974 11.6751L1.40907 12.0689L1.50752 12.2904C1.82746 13.078 2.14741 13.8409 2.46736 14.6285L3.08264 14.4808C3.57487 14.3824 4.04248 14.2593 4.53471 14.1363C5.02694 14.0132 5.32227 14.2839 5.46994 14.4316C5.51916 14.5054 5.593 14.5547 5.66683 14.6039C5.91294 14.8008 5.98678 15.0961 5.91294 15.3915C5.76528 16.0314 5.61761 16.6712 5.46994 17.3111L5.42072 17.508L7.95568 18.6155L8.07874 18.4186C8.4233 17.8772 8.74325 17.3358 9.08781 16.7943C9.26009 16.5236 9.53081 16.3759 9.87537 16.4005C9.97381 16.4005 10.0723 16.4005 10.1953 16.4005C10.1953 16.3759 10.2199 16.3759 10.2445 16.3759ZM4.80543 15.5637C4.80543 15.5637 4.80543 15.5883 4.80543 15.5637C4.80543 15.5883 4.80543 15.5637 4.80543 15.5637Z" fill="#193152"/>
<path d="M10.0232 13.9881C7.80822 13.9881 6.0116 12.1915 6.0116 9.97649C6.0116 7.76147 7.80822 5.96484 10.0232 5.96484C12.2383 5.96484 14.0349 7.78608 14.0349 10.0011C14.0349 12.1915 12.2383 13.9881 10.0232 13.9881ZM10.0232 7.24463C8.49734 7.24463 7.26677 8.4752 7.26677 10.0011C7.26677 11.527 8.49734 12.7576 10.0232 12.7576C11.5491 12.7576 12.7797 11.527 12.7797 10.0011C12.7797 8.4752 11.5491 7.24463 10.0232 7.24463Z" fill="#193152"/>
</svg>
