<?xml version="1.0" encoding="UTF-8"?>
<!DOCTYPE svg PUBLIC "-//W3C//DTD SVG 1.1//EN" "http://www.w3.org/Graphics/SVG/1.1/DTD/svg11.dtd">
<!-- Creator: CorelDRAW X7 -->
<svg xmlns="http://www.w3.org/2000/svg" xml:space="preserve" width="7.44094in" height="7.40787in" version="1.1" style="shape-rendering:geometricPrecision; text-rendering:geometricPrecision; image-rendering:optimizeQuality; fill-rule:evenodd; clip-rule:evenodd"
viewBox="0 0 7441 7408"
 xmlns:xlink="http://www.w3.org/1999/xlink">
 <defs>
  <style type="text/css">
   <![CDATA[
    .fil0 {fill:#545F7D}
   ]]>
  </style>
 </defs>
 <g id="Layer_x0020_1">
  <metadata id="CorelCorpID_0Corel-Layer"/>
  <g id="_1795922325328" i:extraneous="self">
   <g>
    <path class="fil0" d="M3191 4903l-8 33 -554 165c-157,50 -339,513 -479,1240 471,281 1017,430 1570,430 67,0 141,0 207,-8 480,-33 959,-174 1373,-422 -141,-719 -323,-1198 -480,-1240l-554 -165 -8 -33c-8,-25 -25,-50 -58,-66l-66 -42 41 -49c50,-50 83,-100 99,-133 67,-91 116,-190 149,-289 17,-41 33,-83 50,-124l8 -17 17 -8c41,-33 58,-74 58,-124l0 -165c0,-33 -9,-66 -34,-99l-8 -17 0 -248c0,-372 -306,-678 -678,-678l-240 0c-372,0 -677,306 -677,678l0 248 -9 17c-16,24 -33,66 -33,99l0 165c0,50 25,99 58,124l17 8 8 17c8,41 25,83 41,116 42,99 91,198 157,289 33,50 66,91 99,132l42 50 -58 41c-17,33 -41,50 -50,75z"/>
    <path class="fil0" d="M1869 6159c16,-91 41,-181 66,-281 206,-851 421,-1017 603,-1074l314 -91c-49,-83 -99,-174 -132,-265 -8,-25 -25,-58 -33,-83 0,0 0,0 0,0l-339 -99 -8 -33c-9,-25 -25,-50 -58,-66l-58 -50 41 -49c33,-42 66,-83 100,-133 66,-91 115,-190 148,-281 17,-41 33,-82 50,-124l8 -16 17 -8c41,-34 58,-75 58,-125l0 -165c0,-33 -9,-66 -33,-99l-9 -17 0 -248c0,-372 -306,-678 -678,-678l-239 0c-372,0 -678,306 -678,678l0 248 -9 17c-16,25 -33,66 -33,99l0 165c0,50 25,100 58,125l17 8 8 16c8,42 25,83 50,116 41,99 91,198 157,289 33,50 66,91 99,133l41 49 -58 42c-33,24 -49,41 -58,66l-8 33 -554 165c0,0 -8,0 -8,0 174,695 587,1307 1158,1736z"/>
    <path class="fil0" d="M5746 2166l-240 0c-372,0 -678,306 -678,678l0 248 -8 17c-16,33 -25,66 -25,99l0 165c0,50 25,99 58,124l17 9 8 16c16,41 25,83 41,116 42,99 91,198 157,289 25,33 58,83 100,132l41 50 -58 41c-33,25 -50,42 -58,67l-8 33 -339 99c0,0 0,0 0,0 -8,33 -25,58 -33,91 -33,82 -83,173 -132,264l314 91c182,50 397,223 603,1059 25,99 50,198 66,297 174,-132 339,-281 480,-446 322,-372 562,-819 678,-1290 0,0 -8,0 -8,0l-554 -165 -9 -33c-8,-25 -24,-50 -57,-67l-58 -33 49 -49c33,-42 66,-83 100,-133 66,-91 115,-190 148,-281 17,-41 33,-82 50,-124l8 -16 17 -8c41,-34 58,-75 58,-125l0 -165c0,-33 -9,-66 -33,-99l-9 -17 0 -248c-8,-380 -306,-686 -686,-686z"/>
    <path class="fil0" d="M1662 1017l-256 -8c644,-554 1463,-860 2314,-860 852,0 1671,306 2315,860l-256 8 157 149 364 -17 -17 -355 -157 -149 9 256c-670,-587 -1522,-901 -2415,-901 -892,0 -1744,314 -2414,893l9 -256 -158 157 -16 363 364 17 157 -157z"/>
    <path class="fil0" d="M7061 2059l-182 91c239,487 364,1008 364,1546 0,1943 -1580,3522 -3523,3522 -1942,0 -3522,-1579 -3522,-3522 0,-538 124,-1059 364,-1546l-182 -91c-256,521 -380,1066 -380,1628 0,2051 1670,3721 3720,3721 2051,0 3721,-1670 3721,-3721 0,-562 -124,-1107 -380,-1628z"/>
   </g>
  </g>
 </g>
</svg>
